<?xml version="1.0" encoding="UTF-8" standalone="no"?>
<!DOCTYPE svg PUBLIC "-//W3C//DTD SVG 1.1//EN"
 "http://www.w3.org/Graphics/SVG/1.1/DTD/svg11.dtd">
<!-- Generated by graphviz version 14.1.2 (20260124.0452)
 -->
<!-- Pages: 1 -->
<svg width="752pt" height="332pt"
 viewBox="0.00 0.00 752.00 332.00" xmlns="http://www.w3.org/2000/svg" xmlns:xlink="http://www.w3.org/1999/xlink">
<g id="graph0" class="graph" transform="scale(1 1) rotate(0) translate(4 328)">
<polygon fill="white" stroke="none" points="-4,4 -4,-328 747.8,-328 747.8,4 -4,4"/>
<!-- c -->
<g id="c" class="node">
<title>c</title>
<polygon fill="#ff7d08" stroke="black" points="445.7,-324 300.7,-324 300.7,-288 445.7,-288 445.7,-324"/>
<text xml:space="preserve" text-anchor="middle" x="373.2" y="-300.2" font-family="Helvetica,sans-Serif" font-weight="bold" font-size="14.00" fill="white">Model is deployable</text>
</g>
<!-- s -->
<g id="s" class="node">
<title>s</title>
<polygon fill="red" stroke="black" points="366.41,-108 74.97,-108 0,-72 291.43,-72 366.41,-108"/>
<text xml:space="preserve" text-anchor="middle" x="183.2" y="-84.2" font-family="Helvetica,sans-Serif" font-weight="bold" font-size="14.00" fill="white">Accuracy is greater than 85</text>
</g>
<!-- c_perf -->
<g id="c_perf" class="node">
<title>c_perf</title>
<polygon fill="#ff7d08" stroke="dodgerblue" points="379.45,-180 208.95,-180 208.95,-144 379.45,-144 379.45,-180"/>
<text xml:space="preserve" text-anchor="middle" x="294.2" y="-156.2" font-family="Helvetica,sans-Serif" font-weight="bold" font-size="14.00" fill="white">My model is performant</text>
</g>
<!-- s&#45;&gt;c_perf -->
<g id="edge1" class="edge">
<title>s&#45;&gt;c_perf</title>
<path fill="none" stroke="red" d="M210.93,-108.48C224.94,-117.32 242.13,-128.16 257.25,-137.7"/>
<polygon fill="red" stroke="red" points="255.23,-140.56 265.55,-142.93 258.96,-134.64 255.23,-140.56"/>
</g>
<!-- AND -->
<g id="AND" class="node">
<title>AND</title>
<polygon fill="#ff7d08" stroke="black" points="523.53,-252 284.39,-252 222.88,-216 462.01,-216 523.53,-252"/>
<text xml:space="preserve" text-anchor="middle" x="373.2" y="-228.2" font-family="Helvetica,sans-Serif" font-weight="bold" font-size="14.00" fill="white">All conditions are met</text>
</g>
<!-- c_perf&#45;&gt;AND -->
<g id="edge8" class="edge">
<title>c_perf&#45;&gt;AND</title>
<path fill="none" stroke="#ff7d08" d="M313.73,-180.3C323.23,-188.72 334.81,-198.98 345.22,-208.21"/>
<polygon fill="#ff7d08" stroke="#ff7d08" points="342.69,-210.64 352.49,-214.65 347.33,-205.4 342.69,-210.64"/>
</g>
<!-- e2_fair -->
<g id="e2_fair" class="node">
<title>e2_fair</title>
<polygon fill="#a4d3ee" stroke="black" points="665.58,-36 462.83,-36 462.83,0 665.58,0 665.58,-36"/>
<text xml:space="preserve" text-anchor="middle" x="564.2" y="-12.95" font-family="Times,serif" font-size="14.00">Counterfactual dataset is available</text>
</g>
<!-- s_fair -->
<g id="s_fair" class="node">
<title>s_fair</title>
<polygon fill="palegreen" stroke="black" points="743.8,-108 458.1,-108 384.6,-72 670.3,-72 743.8,-108"/>
<text xml:space="preserve" text-anchor="middle" x="564.2" y="-84.95" font-family="Times,serif" font-size="14.00">Assess counterfactual fairness</text>
</g>
<!-- e2_fair&#45;&gt;s_fair -->
<g id="edge2" class="edge">
<title>e2_fair&#45;&gt;s_fair</title>
<path fill="none" stroke="black" d="M564.2,-36.3C564.2,-43.59 564.2,-52.27 564.2,-60.46"/>
<polygon fill="black" stroke="black" points="560.7,-60.38 564.2,-70.38 567.7,-60.38 560.7,-60.38"/>
</g>
<!-- c_fair -->
<g id="c_fair" class="node">
<title>c_fair</title>
<polygon fill="none" stroke="dodgerblue" points="562.7,-180 453.7,-180 453.7,-144 562.7,-144 562.7,-180"/>
<text xml:space="preserve" text-anchor="middle" x="508.2" y="-156.95" font-family="Times,serif" font-size="14.00">My model is fair</text>
</g>
<!-- s_fair&#45;&gt;c_fair -->
<g id="edge4" class="edge">
<title>s_fair&#45;&gt;c_fair</title>
<path fill="none" stroke="black" d="M550.36,-108.3C543.92,-116.36 536.12,-126.11 528.99,-135.02"/>
<polygon fill="black" stroke="black" points="526.35,-132.72 522.83,-142.71 531.81,-137.09 526.35,-132.72"/>
</g>
<!-- AND&#45;&gt;c -->
<g id="edge3" class="edge">
<title>AND&#45;&gt;c</title>
<path fill="none" stroke="#ff7d08" d="M373.2,-252.3C373.2,-259.59 373.2,-268.27 373.2,-276.46"/>
<polygon fill="#ff7d08" stroke="#ff7d08" points="369.7,-276.38 373.2,-286.38 376.7,-276.38 369.7,-276.38"/>
</g>
<!-- c_fair&#45;&gt;AND -->
<g id="edge5" class="edge">
<title>c_fair&#45;&gt;AND</title>
<path fill="none" stroke="black" d="M474.48,-180.48C456.96,-189.57 435.33,-200.78 416.57,-210.51"/>
<polygon fill="black" stroke="black" points="415.1,-207.33 407.83,-215.04 418.32,-213.55 415.1,-207.33"/>
</g>
<!-- e1_fair -->
<g id="e1_fair" class="node">
<title>e1_fair</title>
<polygon fill="#a4d3ee" stroke="black" points="418.83,-36 301.58,-36 301.58,0 418.83,0 418.83,-36"/>
<text xml:space="preserve" text-anchor="middle" x="360.2" y="-12.95" font-family="Times,serif" font-size="14.00">Model is available</text>
</g>
<!-- e1_fair&#45;&gt;s -->
<g id="edge6" class="edge">
<title>e1_fair&#45;&gt;s</title>
<path fill="none" stroke="black" d="M315.99,-36.48C292.25,-45.87 262.78,-57.53 237.63,-67.47"/>
<polygon fill="black" stroke="black" points="236.57,-64.13 228.56,-71.06 239.15,-70.64 236.57,-64.13"/>
</g>
<!-- e1_fair&#45;&gt;s_fair -->
<g id="edge7" class="edge">
<title>e1_fair&#45;&gt;s_fair</title>
<path fill="none" stroke="black" d="M411.15,-36.48C439.01,-46.04 473.7,-57.95 503.01,-68"/>
<polygon fill="black" stroke="black" points="501.52,-71.19 512.12,-71.13 503.79,-64.57 501.52,-71.19"/>
</g>
<!-- e2 -->
<g id="e2" class="node">
<title>e2</title>
<polygon fill="#a4d3ee" stroke="black" points="256.08,-36 110.33,-36 110.33,0 256.08,0 256.08,-36"/>
<text xml:space="preserve" text-anchor="middle" x="183.2" y="-12.95" font-family="Times,serif" font-size="14.00">Test dataset is available</text>
</g>
<!-- e2&#45;&gt;s -->
<g id="edge9" class="edge">
<title>e2&#45;&gt;s</title>
<path fill="none" stroke="black" d="M183.2,-36.3C183.2,-43.59 183.2,-52.27 183.2,-60.46"/>
<polygon fill="black" stroke="black" points="179.7,-60.38 183.2,-70.38 186.7,-60.38 179.7,-60.38"/>
</g>
</g>
</svg>
