<?xml version="1.0" encoding="UTF-8" standalone="no"?>
<!DOCTYPE svg PUBLIC "-//W3C//DTD SVG 1.1//EN"
 "http://www.w3.org/Graphics/SVG/1.1/DTD/svg11.dtd">
<!-- Generated by graphviz version 14.1.2 (20260124.0452)
 -->
<!-- Pages: 1 -->
<svg width="718pt" height="332pt"
 viewBox="0.00 0.00 718.00 332.00" xmlns="http://www.w3.org/2000/svg" xmlns:xlink="http://www.w3.org/1999/xlink">
<g id="graph0" class="graph" transform="scale(1 1) rotate(0) translate(4 328)">
<polygon fill="white" stroke="none" points="-4,4 -4,-328 713.69,-328 713.69,4 -4,4"/>
<!-- c -->
<g id="c" class="node">
<title>c</title>
<polygon fill="lightgrey" stroke="black" points="411.97,-324 284.22,-324 284.22,-288 411.97,-288 411.97,-324"/>
<text xml:space="preserve" text-anchor="middle" x="348.09" y="-300.95" font-family="Times,serif" font-size="14.00">Model is deployable</text>
</g>
<!-- s -->
<g id="s" class="node">
<title>s</title>
<polygon fill="palegreen" stroke="black" points="332.18,-108 67.97,-108 0,-72 264.21,-72 332.18,-108"/>
<text xml:space="preserve" text-anchor="middle" x="166.09" y="-84.95" font-family="Times,serif" font-size="14.00">Accuracy is greater than 85</text>
</g>
<!-- c_perf -->
<g id="c_perf" class="node">
<title>c_perf</title>
<polygon fill="none" stroke="dodgerblue" points="349.59,-180 198.59,-180 198.59,-144 349.59,-144 349.59,-180"/>
<text xml:space="preserve" text-anchor="middle" x="274.09" y="-156.95" font-family="Times,serif" font-size="14.00">My model is performant</text>
</g>
<!-- s&#45;&gt;c_perf -->
<g id="edge1" class="edge">
<title>s&#45;&gt;c_perf</title>
<path fill="none" stroke="black" d="M193.06,-108.48C206.7,-117.32 223.43,-128.16 238.14,-137.7"/>
<polygon fill="black" stroke="black" points="235.89,-140.41 246.19,-142.92 239.7,-134.54 235.89,-140.41"/>
</g>
<!-- AND -->
<g id="AND" class="node">
<title>AND</title>
<polygon fill="palegreen" stroke="black" points="486.42,-252 266.37,-252 209.77,-216 429.81,-216 486.42,-252"/>
<text xml:space="preserve" text-anchor="middle" x="348.09" y="-228.95" font-family="Times,serif" font-size="14.00">All conditions are met</text>
</g>
<!-- c_perf&#45;&gt;AND -->
<g id="edge8" class="edge">
<title>c_perf&#45;&gt;AND</title>
<path fill="none" stroke="black" d="M292.38,-180.3C301.19,-188.63 311.91,-198.78 321.59,-207.93"/>
<polygon fill="black" stroke="black" points="318.98,-210.28 328.65,-214.61 323.79,-205.2 318.98,-210.28"/>
</g>
<!-- e2_fair -->
<g id="e2_fair" class="node">
<title>e2_fair</title>
<polygon fill="#a4d3ee" stroke="black" points="631.47,-36 428.72,-36 428.72,0 631.47,0 631.47,-36"/>
<text xml:space="preserve" text-anchor="middle" x="530.09" y="-12.95" font-family="Times,serif" font-size="14.00">Counterfactual dataset is available</text>
</g>
<!-- s_fair -->
<g id="s_fair" class="node">
<title>s_fair</title>
<polygon fill="palegreen" stroke="black" points="709.69,-108 423.99,-108 350.49,-72 636.19,-72 709.69,-108"/>
<text xml:space="preserve" text-anchor="middle" x="530.09" y="-84.95" font-family="Times,serif" font-size="14.00">Assess counterfactual fairness</text>
</g>
<!-- e2_fair&#45;&gt;s_fair -->
<g id="edge2" class="edge">
<title>e2_fair&#45;&gt;s_fair</title>
<path fill="none" stroke="black" d="M530.09,-36.3C530.09,-43.59 530.09,-52.27 530.09,-60.46"/>
<polygon fill="black" stroke="black" points="526.59,-60.38 530.09,-70.38 533.59,-60.38 526.59,-60.38"/>
</g>
<!-- c_fair -->
<g id="c_fair" class="node">
<title>c_fair</title>
<polygon fill="none" stroke="dodgerblue" points="530.59,-180 421.59,-180 421.59,-144 530.59,-144 530.59,-180"/>
<text xml:space="preserve" text-anchor="middle" x="476.09" y="-156.95" font-family="Times,serif" font-size="14.00">My model is fair</text>
</g>
<!-- s_fair&#45;&gt;c_fair -->
<g id="edge4" class="edge">
<title>s_fair&#45;&gt;c_fair</title>
<path fill="none" stroke="black" d="M516.74,-108.3C510.53,-116.36 503.01,-126.11 496.13,-135.02"/>
<polygon fill="black" stroke="black" points="493.55,-132.64 490.21,-142.7 499.09,-136.92 493.55,-132.64"/>
</g>
<!-- AND&#45;&gt;c -->
<g id="edge3" class="edge">
<title>AND&#45;&gt;c</title>
<path fill="none" stroke="black" d="M348.09,-252.3C348.09,-259.59 348.09,-268.27 348.09,-276.46"/>
<polygon fill="black" stroke="black" points="344.59,-276.38 348.09,-286.38 351.59,-276.38 344.59,-276.38"/>
</g>
<!-- c_fair&#45;&gt;AND -->
<g id="edge5" class="edge">
<title>c_fair&#45;&gt;AND</title>
<path fill="none" stroke="black" d="M444.12,-180.48C427.66,-189.49 407.38,-200.58 389.71,-210.24"/>
<polygon fill="black" stroke="black" points="388.07,-207.14 380.98,-215.01 391.43,-213.29 388.07,-207.14"/>
</g>
<!-- e1_fair -->
<g id="e1_fair" class="node">
<title>e1_fair</title>
<polygon fill="#a4d3ee" stroke="black" points="392.72,-36 275.47,-36 275.47,0 392.72,0 392.72,-36"/>
<text xml:space="preserve" text-anchor="middle" x="334.09" y="-12.95" font-family="Times,serif" font-size="14.00">Model is available</text>
</g>
<!-- e1_fair&#45;&gt;s -->
<g id="edge6" class="edge">
<title>e1_fair&#45;&gt;s</title>
<path fill="none" stroke="black" d="M292.13,-36.48C269.8,-45.79 242.12,-57.32 218.4,-67.21"/>
<polygon fill="black" stroke="black" points="217.09,-63.96 209.2,-71.04 219.78,-70.42 217.09,-63.96"/>
</g>
<!-- e1_fair&#45;&gt;s_fair -->
<g id="edge7" class="edge">
<title>e1_fair&#45;&gt;s_fair</title>
<path fill="none" stroke="black" d="M383.04,-36.48C409.69,-46 442.85,-57.84 470.93,-67.87"/>
<polygon fill="black" stroke="black" points="469.4,-71.04 480,-71.11 471.76,-64.45 469.4,-71.04"/>
</g>
<!-- e2 -->
<g id="e2" class="node">
<title>e2</title>
<polygon fill="#a4d3ee" stroke="black" points="238.97,-36 93.22,-36 93.22,0 238.97,0 238.97,-36"/>
<text xml:space="preserve" text-anchor="middle" x="166.09" y="-12.95" font-family="Times,serif" font-size="14.00">Test dataset is available</text>
</g>
<!-- e2&#45;&gt;s -->
<g id="edge9" class="edge">
<title>e2&#45;&gt;s</title>
<path fill="none" stroke="black" d="M166.09,-36.3C166.09,-43.59 166.09,-52.27 166.09,-60.46"/>
<polygon fill="black" stroke="black" points="162.59,-60.38 166.09,-70.38 169.59,-60.38 162.59,-60.38"/>
</g>
</g>
</svg>
