<?xml version="1.0" encoding="UTF-8" standalone="no"?>
<!DOCTYPE svg PUBLIC "-//W3C//DTD SVG 1.1//EN"
 "http://www.w3.org/Graphics/SVG/1.1/DTD/svg11.dtd">
<!-- Generated by graphviz version 14.1.5 (20260411.2331)
 -->
<!-- Pages: 1 -->
<svg width="555pt" height="332pt"
 viewBox="0.00 0.00 555.00 332.00" xmlns="http://www.w3.org/2000/svg" xmlns:xlink="http://www.w3.org/1999/xlink">
<g id="graph0" class="graph" transform="scale(1 1) rotate(0) translate(4 328)">
<polygon fill="white" stroke="none" points="-4,4 -4,-328 550.66,-328 550.66,4 -4,4"/>
<!-- deployable_assembleConclusion -->
<g id="node1" class="node">
<title>deployable_assembleConclusion</title>
<polygon fill="#cccccc" stroke="black" points="337.88,-324 192.88,-324 192.88,-288 337.88,-288 337.88,-324"/>
<text xml:space="preserve" text-anchor="middle" x="265.38" y="-300.2" font-family="Helvetica,sans-Serif" font-weight="bold" font-size="14.00" fill="white">Model is deployable</text>
</g>
<!-- deployable_fair_c -->
<g id="node2" class="node">
<title>deployable_fair_c</title>
<polygon fill="none" stroke="#0072b2" points="240.88,-180 131.88,-180 131.88,-144 240.88,-144 240.88,-180"/>
<text xml:space="preserve" text-anchor="middle" x="186.38" y="-156.95" font-family="Times,serif" font-size="14.00">My model is fair</text>
</g>
<!-- deployable_assembleStrategy -->
<g id="node9" class="node">
<title>deployable_assembleStrategy</title>
<polygon fill="#cccccc" stroke="black" points="383.76,-234 324.57,-252 206.18,-252 146.99,-234 206.18,-216 324.57,-216 383.76,-234"/>
<text xml:space="preserve" text-anchor="middle" x="265.38" y="-228.2" font-family="Helvetica,sans-Serif" font-weight="bold" font-size="14.00" fill="white">All conditions are met</text>
</g>
<!-- deployable_fair_c&#45;&gt;deployable_assembleStrategy -->
<g id="edge1" class="edge">
<title>deployable_fair_c&#45;&gt;deployable_assembleStrategy</title>
<path fill="none" stroke="black" d="M205.9,-180.3C215.4,-188.72 226.98,-198.98 237.4,-208.21"/>
<polygon fill="black" stroke="black" points="234.86,-210.64 244.66,-214.65 239.5,-205.4 234.86,-210.64"/>
</g>
<!-- deployable_fair_s -->
<g id="node3" class="node">
<title>deployable_fair_s</title>
<polygon fill="#f0c27f" stroke="black" points="239.68,-90 184.03,-108 72.72,-108 17.07,-90 72.72,-72 184.03,-72 239.68,-90"/>
<text xml:space="preserve" text-anchor="middle" x="128.38" y="-84.95" font-family="Times,serif" font-size="14.00">Flip&#45;rate is below 10%</text>
</g>
<!-- deployable_fair_s&#45;&gt;deployable_fair_c -->
<g id="edge2" class="edge">
<title>deployable_fair_s&#45;&gt;deployable_fair_c</title>
<path fill="none" stroke="black" d="M142.71,-108.3C149.45,-116.44 157.63,-126.31 165.08,-135.3"/>
<polygon fill="black" stroke="black" points="162.16,-137.26 171.24,-142.73 167.55,-132.8 162.16,-137.26"/>
</g>
<!-- deployable_unified_0 -->
<g id="node4" class="node">
<title>deployable_unified_0</title>
<polygon fill="#9ecae1" stroke="black" points="332,-36 220.75,-36 220.75,0 338,0 338,-30 332,-36"/>
<polyline fill="none" stroke="black" points="332,-36 332,-30"/>
<polyline fill="none" stroke="black" points="338,-30 332,-30"/>
<text xml:space="preserve" text-anchor="middle" x="279.38" y="-12.95" font-family="Times,serif" font-size="14.00">Model is available</text>
</g>
<!-- deployable_unified_0&#45;&gt;deployable_fair_s -->
<g id="edge3" class="edge">
<title>deployable_unified_0&#45;&gt;deployable_fair_s</title>
<path fill="none" stroke="black" d="M241.66,-36.48C221.86,-45.66 197.38,-57.01 176.25,-66.8"/>
<polygon fill="black" stroke="black" points="174.84,-63.6 167.24,-70.98 177.79,-69.95 174.84,-63.6"/>
</g>
<!-- deployable_performant_s -->
<g id="node7" class="node">
<title>deployable_performant_s</title>
<polygon fill="red" stroke="black" points="546.66,-90 474.52,-108 330.23,-108 258.09,-90 330.23,-72 474.52,-72 546.66,-90"/>
<text xml:space="preserve" text-anchor="middle" x="402.38" y="-84.2" font-family="Helvetica,sans-Serif" font-weight="bold" font-size="14.00" fill="white">Accuracy is greater than 85</text>
</g>
<!-- deployable_unified_0&#45;&gt;deployable_performant_s -->
<g id="edge4" class="edge">
<title>deployable_unified_0&#45;&gt;deployable_performant_s</title>
<path fill="none" stroke="black" d="M310.1,-36.48C325.92,-45.49 345.4,-56.58 362.38,-66.24"/>
<polygon fill="black" stroke="black" points="360.31,-69.09 370.73,-70.99 363.77,-63 360.31,-69.09"/>
</g>
<!-- deployable_fair_e2 -->
<g id="node5" class="node">
<title>deployable_fair_e2</title>
<polygon fill="#9ecae1" stroke="black" points="196.75,-36 0,-36 0,0 202.75,0 202.75,-30 196.75,-36"/>
<polyline fill="none" stroke="black" points="196.75,-36 196.75,-30"/>
<polyline fill="none" stroke="black" points="202.75,-30 196.75,-30"/>
<text xml:space="preserve" text-anchor="middle" x="101.38" y="-12.95" font-family="Times,serif" font-size="14.00">Counterfactual dataset is available</text>
</g>
<!-- deployable_fair_e2&#45;&gt;deployable_fair_s -->
<g id="edge5" class="edge">
<title>deployable_fair_e2&#45;&gt;deployable_fair_s</title>
<path fill="none" stroke="black" d="M108.05,-36.3C110.96,-43.85 114.44,-52.88 117.7,-61.32"/>
<polygon fill="black" stroke="black" points="114.37,-62.41 121.23,-70.48 120.9,-59.89 114.37,-62.41"/>
</g>
<!-- deployable_performant_c -->
<g id="node6" class="node">
<title>deployable_performant_c</title>
<polygon fill="#cccccc" stroke="#0072b2" points="458.62,-180 288.12,-180 288.12,-144 458.62,-144 458.62,-180"/>
<text xml:space="preserve" text-anchor="middle" x="373.38" y="-156.2" font-family="Helvetica,sans-Serif" font-weight="bold" font-size="14.00" fill="white">My model is performant</text>
</g>
<!-- deployable_performant_c&#45;&gt;deployable_assembleStrategy -->
<g id="edge6" class="edge">
<title>deployable_performant_c&#45;&gt;deployable_assembleStrategy</title>
<path fill="none" stroke="#cccccc" d="M346.4,-180.48C332.77,-189.32 316.04,-200.16 301.33,-209.7"/>
<polygon fill="#cccccc" stroke="#cccccc" points="299.76,-206.54 293.28,-214.92 303.57,-212.41 299.76,-206.54"/>
</g>
<!-- deployable_performant_s&#45;&gt;deployable_performant_c -->
<g id="edge7" class="edge">
<title>deployable_performant_s&#45;&gt;deployable_performant_c</title>
<path fill="none" stroke="red" d="M395.21,-108.3C392.08,-115.85 388.34,-124.88 384.84,-133.32"/>
<polygon fill="red" stroke="red" points="381.63,-131.92 381.04,-142.5 388.1,-134.6 381.63,-131.92"/>
</g>
<!-- deployable_performant_e2 -->
<g id="node8" class="node">
<title>deployable_performant_e2</title>
<polygon fill="#9ecae1" stroke="black" points="496.25,-36 356.5,-36 356.5,0 502.25,0 502.25,-30 496.25,-36"/>
<polyline fill="none" stroke="black" points="496.25,-36 496.25,-30"/>
<polyline fill="none" stroke="black" points="502.25,-30 496.25,-30"/>
<text xml:space="preserve" text-anchor="middle" x="429.38" y="-12.95" font-family="Times,serif" font-size="14.00">Test dataset is available</text>
</g>
<!-- deployable_performant_e2&#45;&gt;deployable_performant_s -->
<g id="edge8" class="edge">
<title>deployable_performant_e2&#45;&gt;deployable_performant_s</title>
<path fill="none" stroke="black" d="M422.7,-36.3C419.79,-43.85 416.31,-52.88 413.05,-61.32"/>
<polygon fill="black" stroke="black" points="409.85,-59.89 409.52,-70.48 416.38,-62.41 409.85,-59.89"/>
</g>
<!-- deployable_assembleStrategy&#45;&gt;deployable_assembleConclusion -->
<g id="edge9" class="edge">
<title>deployable_assembleStrategy&#45;&gt;deployable_assembleConclusion</title>
<path fill="none" stroke="#cccccc" d="M265.38,-252.3C265.38,-259.59 265.38,-268.27 265.38,-276.46"/>
<polygon fill="#cccccc" stroke="#cccccc" points="261.88,-276.38 265.38,-286.38 268.88,-276.38 261.88,-276.38"/>
</g>
</g>
</svg>
