<?xml version="1.0" encoding="UTF-8" standalone="no"?>
<!DOCTYPE svg PUBLIC "-//W3C//DTD SVG 1.1//EN"
 "http://www.w3.org/Graphics/SVG/1.1/DTD/svg11.dtd">
<!-- Generated by graphviz version 14.1.5 (20260411.2331)
 -->
<!-- Title: deployable Pages: 1 -->
<svg width="534pt" height="357pt"
 viewBox="0.00 0.00 534.00 357.00" xmlns="http://www.w3.org/2000/svg" xmlns:xlink="http://www.w3.org/1999/xlink">
<g id="graph0" class="graph" transform="scale(1 1) rotate(0) translate(4 352.5)">
<title>deployable</title>
<polygon fill="white" stroke="none" points="-4,4 -4,-352.5 530.18,-352.5 530.18,4 -4,4"/>
<text xml:space="preserve" text-anchor="middle" x="263.09" y="-7.2" font-family="Times,serif" font-size="14.00">deployable</text>
<!-- deployable:assembleConclusion -->
<g id="deployable:assembleConclusion" class="node">
<title>deployable:assembleConclusion</title>
<path fill="lightgrey" stroke="black" d="M317.25,-348.5C317.25,-348.5 213.5,-348.5 213.5,-348.5 207.5,-348.5 201.5,-342.5 201.5,-336.5 201.5,-336.5 201.5,-324.5 201.5,-324.5 201.5,-318.5 207.5,-312.5 213.5,-312.5 213.5,-312.5 317.25,-312.5 317.25,-312.5 323.25,-312.5 329.25,-318.5 329.25,-324.5 329.25,-324.5 329.25,-336.5 329.25,-336.5 329.25,-342.5 323.25,-348.5 317.25,-348.5"/>
<text xml:space="preserve" text-anchor="middle" x="265.38" y="-325.45" font-family="Times,serif" font-size="14.00">Model is deployable</text>
</g>
<!-- deployable:fair:c -->
<g id="deployable:fair:c" class="node">
<title>deployable:fair:c</title>
<polygon fill="none" stroke="#0072b2" points="245.88,-204.5 136.88,-204.5 136.88,-168.5 245.88,-168.5 245.88,-204.5"/>
<text xml:space="preserve" text-anchor="middle" x="191.38" y="-181.45" font-family="Times,serif" font-size="14.00">My model is fair</text>
</g>
<!-- deployable:assembleStrategy -->
<g id="deployable:assembleStrategy" class="node">
<title>deployable:assembleStrategy</title>
<polygon fill="#f0c27f" stroke="black" points="374.31,-258.5 319.84,-276.5 210.91,-276.5 156.44,-258.5 210.91,-240.5 319.84,-240.5 374.31,-258.5"/>
<text xml:space="preserve" text-anchor="middle" x="265.38" y="-253.45" font-family="Times,serif" font-size="14.00">All conditions are met</text>
</g>
<!-- deployable:fair:c&#45;&gt;deployable:assembleStrategy -->
<g id="edge8" class="edge">
<title>deployable:fair:c&#45;&gt;deployable:assembleStrategy</title>
<path fill="none" stroke="black" d="M209.67,-204.8C218.47,-213.13 229.2,-223.28 238.87,-232.43"/>
<polygon fill="black" stroke="black" points="236.27,-234.78 245.94,-239.11 241.08,-229.7 236.27,-234.78"/>
</g>
<!-- deployable:fair:s -->
<g id="deployable:fair:s" class="node">
<title>deployable:fair:s</title>
<polygon fill="#f0c27f" stroke="black" points="246.68,-114.5 191.03,-132.5 79.72,-132.5 24.07,-114.5 79.72,-96.5 191.03,-96.5 246.68,-114.5"/>
<text xml:space="preserve" text-anchor="middle" x="135.38" y="-109.45" font-family="Times,serif" font-size="14.00">Flip&#45;rate is below 10%</text>
</g>
<!-- deployable:fair:s&#45;&gt;deployable:fair:c -->
<g id="edge2" class="edge">
<title>deployable:fair:s&#45;&gt;deployable:fair:c</title>
<path fill="none" stroke="black" d="M149.22,-132.8C155.66,-140.86 163.46,-150.61 170.59,-159.52"/>
<polygon fill="black" stroke="black" points="167.77,-161.59 176.75,-167.21 173.23,-157.22 167.77,-161.59"/>
</g>
<!-- deployable:unified_0 -->
<g id="deployable:unified_0" class="node">
<title>deployable:unified_0</title>
<polygon fill="#9ecae1" stroke="black" points="332,-60.5 220.75,-60.5 220.75,-24.5 338,-24.5 338,-54.5 332,-60.5"/>
<polyline fill="none" stroke="black" points="332,-60.5 332,-54.5"/>
<polyline fill="none" stroke="black" points="338,-54.5 332,-54.5"/>
<text xml:space="preserve" text-anchor="middle" x="279.38" y="-37.45" font-family="Times,serif" font-size="14.00">Model is available</text>
</g>
<!-- deployable:unified_0&#45;&gt;deployable:fair:s -->
<g id="edge4" class="edge">
<title>deployable:unified_0&#45;&gt;deployable:fair:s</title>
<path fill="none" stroke="black" d="M243.41,-60.98C224.54,-70.16 201.22,-81.49 181.08,-91.28"/>
<polygon fill="black" stroke="black" points="179.71,-88.06 172.24,-95.58 182.77,-94.35 179.71,-88.06"/>
</g>
<!-- deployable:performant:s -->
<g id="deployable:performant:s" class="node">
<title>deployable:performant:s</title>
<polygon fill="#f0c27f" stroke="black" points="526.18,-114.5 460.78,-132.5 329.97,-132.5 264.57,-114.5 329.97,-96.5 460.78,-96.5 526.18,-114.5"/>
<text xml:space="preserve" text-anchor="middle" x="395.38" y="-109.45" font-family="Times,serif" font-size="14.00">Accuracy is greater than 85</text>
</g>
<!-- deployable:unified_0&#45;&gt;deployable:performant:s -->
<g id="edge6" class="edge">
<title>deployable:unified_0&#45;&gt;deployable:performant:s</title>
<path fill="none" stroke="black" d="M308.35,-60.98C323.13,-69.9 341.3,-80.87 357.21,-90.47"/>
<polygon fill="black" stroke="black" points="355.11,-93.29 365.48,-95.46 358.72,-87.29 355.11,-93.29"/>
</g>
<!-- deployable:fair:e2 -->
<g id="deployable:fair:e2" class="node">
<title>deployable:fair:e2</title>
<polygon fill="#9ecae1" stroke="black" points="196.75,-60.5 0,-60.5 0,-24.5 202.75,-24.5 202.75,-54.5 196.75,-60.5"/>
<polyline fill="none" stroke="black" points="196.75,-60.5 196.75,-54.5"/>
<polyline fill="none" stroke="black" points="202.75,-54.5 196.75,-54.5"/>
<text xml:space="preserve" text-anchor="middle" x="101.38" y="-37.45" font-family="Times,serif" font-size="14.00">Counterfactual dataset is available</text>
</g>
<!-- deployable:fair:e2&#45;&gt;deployable:fair:s -->
<g id="edge5" class="edge">
<title>deployable:fair:e2&#45;&gt;deployable:fair:s</title>
<path fill="none" stroke="black" d="M109.78,-60.8C113.49,-68.43 117.93,-77.58 122.07,-86.1"/>
<polygon fill="black" stroke="black" points="118.89,-87.57 126.41,-95.03 125.19,-84.51 118.89,-87.57"/>
</g>
<!-- deployable:performant:c -->
<g id="deployable:performant:c" class="node">
<title>deployable:performant:c</title>
<polygon fill="none" stroke="#0072b2" points="442.88,-204.5 291.88,-204.5 291.88,-168.5 442.88,-168.5 442.88,-204.5"/>
<text xml:space="preserve" text-anchor="middle" x="367.38" y="-181.45" font-family="Times,serif" font-size="14.00">My model is performant</text>
</g>
<!-- deployable:performant:c&#45;&gt;deployable:assembleStrategy -->
<g id="edge9" class="edge">
<title>deployable:performant:c&#45;&gt;deployable:assembleStrategy</title>
<path fill="none" stroke="black" d="M341.9,-204.98C329.15,-213.74 313.52,-224.46 299.73,-233.92"/>
<polygon fill="black" stroke="black" points="298.04,-230.84 291.77,-239.38 302,-236.61 298.04,-230.84"/>
</g>
<!-- deployable:performant:s&#45;&gt;deployable:performant:c -->
<g id="edge3" class="edge">
<title>deployable:performant:s&#45;&gt;deployable:performant:c</title>
<path fill="none" stroke="black" d="M388.45,-132.8C385.44,-140.35 381.82,-149.38 378.45,-157.82"/>
<polygon fill="black" stroke="black" points="375.24,-156.41 374.78,-166.99 381.74,-159.01 375.24,-156.41"/>
</g>
<!-- deployable:performant:e2 -->
<g id="deployable:performant:e2" class="node">
<title>deployable:performant:e2</title>
<polygon fill="#9ecae1" stroke="black" points="496.25,-60.5 356.5,-60.5 356.5,-24.5 502.25,-24.5 502.25,-54.5 496.25,-60.5"/>
<polyline fill="none" stroke="black" points="496.25,-60.5 496.25,-54.5"/>
<polyline fill="none" stroke="black" points="502.25,-54.5 496.25,-54.5"/>
<text xml:space="preserve" text-anchor="middle" x="429.38" y="-37.45" font-family="Times,serif" font-size="14.00">Test dataset is available</text>
</g>
<!-- deployable:performant:e2&#45;&gt;deployable:performant:s -->
<g id="edge7" class="edge">
<title>deployable:performant:e2&#45;&gt;deployable:performant:s</title>
<path fill="none" stroke="black" d="M420.97,-60.8C417.26,-68.43 412.82,-77.58 408.68,-86.1"/>
<polygon fill="black" stroke="black" points="405.56,-84.51 404.34,-95.03 411.86,-87.57 405.56,-84.51"/>
</g>
<!-- deployable:assembleStrategy&#45;&gt;deployable:assembleConclusion -->
<g id="edge1" class="edge">
<title>deployable:assembleStrategy&#45;&gt;deployable:assembleConclusion</title>
<path fill="none" stroke="black" d="M265.38,-276.8C265.38,-284.09 265.38,-292.77 265.38,-300.96"/>
<polygon fill="black" stroke="black" points="261.88,-300.88 265.38,-310.88 268.88,-300.88 261.88,-300.88"/>
</g>
</g>
</svg>
