<?xml version="1.0" encoding="UTF-8" standalone="no"?>
<!DOCTYPE svg PUBLIC "-//W3C//DTD SVG 1.1//EN"
 "http://www.w3.org/Graphics/SVG/1.1/DTD/svg11.dtd">
<!-- Generated by graphviz version 14.1.5 (20260411.2331)
 -->
<!-- Pages: 1 -->
<svg width="2134pt" height="44pt"
 viewBox="0.00 0.00 2134.00 44.00" xmlns="http://www.w3.org/2000/svg" xmlns:xlink="http://www.w3.org/1999/xlink">
<g id="graph0" class="graph" transform="scale(1 1) rotate(0) translate(4 40)">
<polygon fill="white" stroke="none" points="-4,4 -4,-40 2129.85,-40 2129.85,4 -4,4"/>
<!-- deployable:assembleConclusion -->
<g id="node1" class="node">
<title>deployable:assembleConclusion</title>
<polygon fill="#cccccc" stroke="black" points="145,-36 0,-36 0,0 145,0 145,-36"/>
<text xml:space="preserve" text-anchor="middle" x="72.5" y="-12.2" font-family="Helvetica,sans-Serif" font-weight="bold" font-size="14.00" fill="white">Model is deployable</text>
</g>
<!-- deployable:fair:c -->
<g id="node2" class="node">
<title>deployable:fair:c</title>
<polygon fill="none" stroke="#0072b2" points="272,-36 163,-36 163,0 272,0 272,-36"/>
<text xml:space="preserve" text-anchor="middle" x="217.5" y="-12.95" font-family="Times,serif" font-size="14.00">My model is fair</text>
</g>
<!-- deployable:fair:s -->
<g id="node3" class="node">
<title>deployable:fair:s</title>
<polygon fill="#f0c27f" stroke="black" points="572.94,-18 502.22,-36 360.78,-36 290.06,-18 360.78,0 502.22,0 572.94,-18"/>
<text xml:space="preserve" text-anchor="middle" x="431.5" y="-12.95" font-family="Times,serif" font-size="14.00">Assess counterfactual fairness</text>
</g>
<!-- deployable:unified_0 -->
<g id="node4" class="node">
<title>deployable:unified_0</title>
<polygon fill="#9ecae1" stroke="black" points="702.12,-36 590.88,-36 590.88,0 708.12,0 708.12,-30 702.12,-36"/>
<polyline fill="none" stroke="black" points="702.12,-36 702.12,-30"/>
<polyline fill="none" stroke="black" points="708.12,-30 702.12,-30"/>
<text xml:space="preserve" text-anchor="middle" x="649.5" y="-12.95" font-family="Times,serif" font-size="14.00">Model is available</text>
</g>
<!-- deployable:fair:e2 -->
<g id="node5" class="node">
<title>deployable:fair:e2</title>
<polygon fill="#9ecae1" stroke="black" points="922.88,-36 726.12,-36 726.12,0 928.88,0 928.88,-30 922.88,-36"/>
<polyline fill="none" stroke="black" points="922.88,-36 922.88,-30"/>
<polyline fill="none" stroke="black" points="928.88,-30 922.88,-30"/>
<text xml:space="preserve" text-anchor="middle" x="827.5" y="-12.95" font-family="Times,serif" font-size="14.00">Counterfactual dataset is available</text>
</g>
<!-- deployable:performant:c -->
<g id="node6" class="node">
<title>deployable:performant:c</title>
<polygon fill="#cccccc" stroke="#0072b2" points="1117.75,-36 947.25,-36 947.25,0 1117.75,0 1117.75,-36"/>
<text xml:space="preserve" text-anchor="middle" x="1032.5" y="-12.2" font-family="Helvetica,sans-Serif" font-weight="bold" font-size="14.00" fill="white">My model is performant</text>
</g>
<!-- deployable:performant:s -->
<g id="node7" class="node">
<title>deployable:performant:s</title>
<polygon fill="red" stroke="black" points="1424.78,-18 1352.64,-36 1208.36,-36 1136.22,-18 1208.36,0 1352.64,0 1424.78,-18"/>
<text xml:space="preserve" text-anchor="middle" x="1280.5" y="-12.2" font-family="Helvetica,sans-Serif" font-weight="bold" font-size="14.00" fill="white">Accuracy is greater than 85</text>
</g>
<!-- deployable:performant:e2 -->
<g id="node8" class="node">
<title>deployable:performant:e2</title>
<polygon fill="#9ecae1" stroke="black" points="1582.38,-36 1442.62,-36 1442.62,0 1588.38,0 1588.38,-30 1582.38,-36"/>
<polyline fill="none" stroke="black" points="1582.38,-36 1582.38,-30"/>
<polyline fill="none" stroke="black" points="1588.38,-30 1582.38,-30"/>
<text xml:space="preserve" text-anchor="middle" x="1515.5" y="-12.95" font-family="Times,serif" font-size="14.00">Test dataset is available</text>
</g>
<!-- deployable:assembleStrategy -->
<g id="node9" class="node">
<title>deployable:assembleStrategy</title>
<polygon fill="#cccccc" stroke="black" points="1842.89,-18 1783.69,-36 1665.31,-36 1606.11,-18 1665.31,0 1783.69,0 1842.89,-18"/>
<text xml:space="preserve" text-anchor="middle" x="1724.5" y="-12.2" font-family="Helvetica,sans-Serif" font-weight="bold" font-size="14.00" fill="white">All conditions are met</text>
</g>
<!-- deployable -->
<g id="node10" class="node">
<title>deployable</title>
<ellipse fill="none" stroke="black" cx="1912.5" cy="-18" rx="51.35" ry="18"/>
<text xml:space="preserve" text-anchor="middle" x="1912.5" y="-12.95" font-family="Times,serif" font-size="14.00">deployable</text>
</g>
<!-- deployable&#45;&gt;deployable -->
<g id="edge1" class="edge">
<title>deployable:c&#45;&gt;deployable:assembleStrategy</title>
<path fill="none" stroke="black" d="M1963.92,-16.56C1974.37,-16.71 1981.85,-17.2 1981.85,-18 1981.85,-18.47 1979.35,-18.82 1975.22,-19.07"/>
<polygon fill="black" stroke="black" points="1975.31,-15.57 1965.43,-19.39 1975.54,-22.56 1975.31,-15.57"/>
</g>
<!-- deployable&#45;&gt;deployable -->
<g id="edge2" class="edge">
<title>deployable:s&#45;&gt;deployable:c</title>
<path fill="none" stroke="black" d="M1963.64,-15.01C1983.42,-14.88 1999.85,-15.88 1999.85,-18 1999.85,-19.71 1989.21,-20.69 1974.75,-20.94"/>
<polygon fill="black" stroke="black" points="1975.14,-17.43 1965.16,-20.98 1975.17,-24.43 1975.14,-17.43"/>
</g>
<!-- deployable&#45;&gt;deployable -->
<g id="edge3" class="edge">
<title>deployable:unified_0&#45;&gt;deployable:s</title>
<path fill="none" stroke="black" d="M1962.9,-13.73C1991.44,-12.9 2017.85,-14.32 2017.85,-18 2017.85,-21.19 1997.99,-22.68 1974.1,-22.48"/>
<polygon fill="black" stroke="black" points="1974.48,-18.99 1964.42,-22.3 1974.35,-25.99 1974.48,-18.99"/>
</g>
<!-- deployable&#45;&gt;deployable -->
<g id="edge4" class="edge">
<title>deployable:unified_0&#45;&gt;deployable:s</title>
<path fill="none" stroke="black" d="M1961.9,-12.71C1998.73,-10.86 2035.85,-12.62 2035.85,-18 2035.85,-22.83 2005.89,-24.74 1973.09,-23.74"/>
<polygon fill="black" stroke="black" points="1973.54,-20.26 1963.41,-23.35 1973.26,-27.25 1973.54,-20.26"/>
</g>
<!-- deployable&#45;&gt;deployable -->
<g id="edge5" class="edge">
<title>deployable:e2&#45;&gt;deployable:s</title>
<path fill="none" stroke="black" d="M1961.39,-11.86C2005.96,-8.82 2053.85,-10.87 2053.85,-18 2053.85,-24.53 2013.67,-26.8 1972.66,-24.8"/>
<polygon fill="black" stroke="black" points="1973.09,-21.32 1962.9,-24.23 1972.68,-28.3 1973.09,-21.32"/>
</g>
<!-- deployable&#45;&gt;deployable -->
<g id="edge6" class="edge">
<title>deployable:c&#45;&gt;deployable:assembleStrategy</title>
<path fill="none" stroke="#cccccc" d="M1960.63,-11.18C2012.72,-6.77 2071.85,-9.05 2071.85,-18 2071.85,-26.31 2020.95,-28.86 1972,-25.67"/>
<polygon fill="#cccccc" stroke="#cccccc" points="1972.37,-22.19 1962.13,-24.93 1971.85,-29.17 1972.37,-22.19"/>
</g>
<!-- deployable&#45;&gt;deployable -->
<g id="edge7" class="edge">
<title>deployable:s&#45;&gt;deployable:c</title>
<path fill="none" stroke="red" d="M1959.72,-10.64C2019.12,-4.72 2089.85,-7.17 2089.85,-18 2089.85,-28.15 2027.69,-30.94 1970.97,-26.37"/>
<polygon fill="red" stroke="red" points="1971.5,-22.91 1961.23,-25.5 1970.88,-29.88 1971.5,-22.91"/>
</g>
<!-- deployable&#45;&gt;deployable -->
<g id="edge8" class="edge">
<title>deployable:e2&#45;&gt;deployable:s</title>
<path fill="none" stroke="black" d="M1959.09,-10.17C2025.56,-2.67 2107.85,-5.28 2107.85,-18 2107.85,-30 2034.61,-33 1970.52,-27"/>
<polygon fill="black" stroke="black" points="1970.9,-23.52 1960.6,-25.98 1970.19,-30.49 1970.9,-23.52"/>
</g>
<!-- deployable&#45;&gt;deployable -->
<g id="edge9" class="edge">
<title>deployable:assembleStrategy&#45;&gt;deployable:assembleConclusion</title>
<path fill="none" stroke="#cccccc" d="M1958.86,-9.74C2032.18,-0.64 2125.85,-3.39 2125.85,-18 2125.85,-31.87 2041.45,-35.05 1970.17,-27.55"/>
<polygon fill="#cccccc" stroke="#cccccc" points="1970.7,-24.09 1960.37,-26.43 1969.9,-31.05 1970.7,-24.09"/>
</g>
</g>
</svg>
