<?xml version="1.0" encoding="UTF-8" standalone="no"?>
<!DOCTYPE svg PUBLIC "-//W3C//DTD SVG 1.1//EN"
 "http://www.w3.org/Graphics/SVG/1.1/DTD/svg11.dtd">
<!-- Generated by graphviz version 14.1.5 (20260411.2331)
 -->
<!-- Title: fair Pages: 1 -->
<svg width="367pt" height="243pt"
 viewBox="0.00 0.00 367.00 243.00" xmlns="http://www.w3.org/2000/svg" xmlns:xlink="http://www.w3.org/1999/xlink">
<g id="graph0" class="graph" transform="scale(1 1) rotate(0) translate(4 239.45)">
<title>fair</title>
<polygon fill="white" stroke="none" points="-4,4 -4,-239.45 362.98,-239.45 362.98,4 -4,4"/>
<text xml:space="preserve" text-anchor="middle" x="179.49" y="-7.2" font-family="Times,serif" font-size="14.00">fair</text>
<!-- fair:c -->
<g id="fair:c" class="node">
<title>fair:c</title>
<path fill="lightgrey" stroke="black" d="M211.11,-235.45C211.11,-235.45 126.11,-235.45 126.11,-235.45 120.11,-235.45 114.11,-229.45 114.11,-223.45 114.11,-223.45 114.11,-211.45 114.11,-211.45 114.11,-205.45 120.11,-199.45 126.11,-199.45 126.11,-199.45 211.11,-199.45 211.11,-199.45 217.11,-199.45 223.11,-205.45 223.11,-211.45 223.11,-211.45 223.11,-223.45 223.11,-223.45 223.11,-229.45 217.11,-235.45 211.11,-235.45"/>
<text xml:space="preserve" text-anchor="middle" x="168.61" y="-212.4" font-family="Times,serif" font-size="14.00">My model is fair</text>
</g>
<!-- fair:s -->
<g id="fair:s" class="node">
<title>fair:s</title>
<polygon fill="#f0c27f" stroke="black" points="337.21,-129.98 252.91,-163.45 84.3,-163.45 0,-129.98 84.3,-96.5 252.91,-96.5 337.21,-129.98"/>
<text xml:space="preserve" text-anchor="middle" x="168.61" y="-133.18" font-family="Times,serif" font-size="14.00">Assess counterfactual fairness (flip</text>
<text xml:space="preserve" text-anchor="middle" x="168.61" y="-116.68" font-family="Times,serif" font-size="14.00">rate is OK)</text>
</g>
<!-- fair:s&#45;&gt;fair:c -->
<g id="edge1" class="edge">
<title>fair:s&#45;&gt;fair:c</title>
<path fill="none" stroke="black" d="M168.61,-163.78C168.61,-171.69 168.61,-180.08 168.61,-187.78"/>
<polygon fill="black" stroke="black" points="165.11,-187.64 168.61,-197.64 172.11,-187.64 165.11,-187.64"/>
</g>
<!-- fair:e1 -->
<g id="fair:e1" class="node">
<title>fair:e1</title>
<polygon fill="#9ecae1" stroke="black" points="132.23,-60.5 20.98,-60.5 20.98,-24.5 138.23,-24.5 138.23,-54.5 132.23,-60.5"/>
<polyline fill="none" stroke="black" points="132.23,-60.5 132.23,-54.5"/>
<polyline fill="none" stroke="black" points="138.23,-54.5 132.23,-54.5"/>
<text xml:space="preserve" text-anchor="middle" x="79.61" y="-37.45" font-family="Times,serif" font-size="14.00">Model is available</text>
</g>
<!-- fair:e1&#45;&gt;fair:s -->
<g id="edge2" class="edge">
<title>fair:e1&#45;&gt;fair:s</title>
<path fill="none" stroke="black" d="M97.62,-60.8C105.95,-68.8 116.24,-78.68 126.37,-88.41"/>
<polygon fill="black" stroke="black" points="123.69,-90.69 133.33,-95.09 128.54,-85.64 123.69,-90.69"/>
</g>
<!-- fair:e2 -->
<g id="fair:e2" class="node">
<title>fair:e2</title>
<polygon fill="#9ecae1" stroke="black" points="352.98,-60.5 156.23,-60.5 156.23,-24.5 358.98,-24.5 358.98,-54.5 352.98,-60.5"/>
<polyline fill="none" stroke="black" points="352.98,-60.5 352.98,-54.5"/>
<polyline fill="none" stroke="black" points="358.98,-54.5 352.98,-54.5"/>
<text xml:space="preserve" text-anchor="middle" x="257.61" y="-37.45" font-family="Times,serif" font-size="14.00">Counterfactual dataset is available</text>
</g>
<!-- fair:e2&#45;&gt;fair:s -->
<g id="edge3" class="edge">
<title>fair:e2&#45;&gt;fair:s</title>
<path fill="none" stroke="black" d="M239.6,-60.8C231.26,-68.8 220.97,-78.68 210.84,-88.41"/>
<polygon fill="black" stroke="black" points="208.67,-85.64 203.89,-95.09 213.52,-90.69 208.67,-85.64"/>
</g>
</g>
</svg>
