<?xml version="1.0" encoding="UTF-8" standalone="no"?>
<!DOCTYPE svg PUBLIC "-//W3C//DTD SVG 1.1//EN"
 "http://www.w3.org/Graphics/SVG/1.1/DTD/svg11.dtd">
<!-- Generated by graphviz version 14.1.5 (20260411.2331)
 -->
<!-- Title: fair Pages: 1 -->
<svg width="346pt" height="213pt"
 viewBox="0.00 0.00 346.00 213.00" xmlns="http://www.w3.org/2000/svg" xmlns:xlink="http://www.w3.org/1999/xlink">
<g id="graph0" class="graph" transform="scale(1 1) rotate(0) translate(4 208.5)">
<title>fair</title>
<polygon fill="white" stroke="none" points="-4,4 -4,-208.5 342,-208.5 342,4 -4,4"/>
<text xml:space="preserve" text-anchor="middle" x="169" y="-7.2" font-family="Times,serif" font-size="14.00">fair</text>
<!-- fair:c -->
<g id="fair:c" class="node">
<title>fair:c</title>
<path fill="lightgrey" stroke="black" d="M190.12,-204.5C190.12,-204.5 105.12,-204.5 105.12,-204.5 99.12,-204.5 93.12,-198.5 93.12,-192.5 93.12,-192.5 93.12,-180.5 93.12,-180.5 93.12,-174.5 99.12,-168.5 105.12,-168.5 105.12,-168.5 190.12,-168.5 190.12,-168.5 196.12,-168.5 202.12,-174.5 202.12,-180.5 202.12,-180.5 202.12,-192.5 202.12,-192.5 202.12,-198.5 196.12,-204.5 190.12,-204.5"/>
<text xml:space="preserve" text-anchor="middle" x="147.62" y="-181.45" font-family="Times,serif" font-size="14.00">My model is fair</text>
</g>
<!-- fair:s -->
<g id="fair:s" class="node">
<title>fair:s</title>
<polygon fill="#f0c27f" stroke="black" points="258.93,-114.5 203.28,-132.5 91.97,-132.5 36.32,-114.5 91.97,-96.5 203.28,-96.5 258.93,-114.5"/>
<text xml:space="preserve" text-anchor="middle" x="147.62" y="-109.45" font-family="Times,serif" font-size="14.00">Flip&#45;rate is below 10%</text>
</g>
<!-- fair:s&#45;&gt;fair:c -->
<g id="edge1" class="edge">
<title>fair:s&#45;&gt;fair:c</title>
<path fill="none" stroke="black" d="M147.62,-132.8C147.62,-140.09 147.62,-148.77 147.62,-156.96"/>
<polygon fill="black" stroke="black" points="144.13,-156.88 147.63,-166.88 151.13,-156.88 144.13,-156.88"/>
</g>
<!-- fair:e1 -->
<g id="fair:e1" class="node">
<title>fair:e1</title>
<polygon fill="#9ecae1" stroke="black" points="111.25,-60.5 0,-60.5 0,-24.5 117.25,-24.5 117.25,-54.5 111.25,-60.5"/>
<polyline fill="none" stroke="black" points="111.25,-60.5 111.25,-54.5"/>
<polyline fill="none" stroke="black" points="117.25,-54.5 111.25,-54.5"/>
<text xml:space="preserve" text-anchor="middle" x="58.62" y="-37.45" font-family="Times,serif" font-size="14.00">Model is available</text>
</g>
<!-- fair:e1&#45;&gt;fair:s -->
<g id="edge2" class="edge">
<title>fair:e1&#45;&gt;fair:s</title>
<path fill="none" stroke="black" d="M80.63,-60.8C91.54,-69.39 104.9,-79.89 116.81,-89.26"/>
<polygon fill="black" stroke="black" points="114.36,-91.79 124.38,-95.22 118.68,-86.28 114.36,-91.79"/>
</g>
<!-- fair:e2 -->
<g id="fair:e2" class="node">
<title>fair:e2</title>
<polygon fill="#9ecae1" stroke="black" points="332,-60.5 135.25,-60.5 135.25,-24.5 338,-24.5 338,-54.5 332,-60.5"/>
<polyline fill="none" stroke="black" points="332,-60.5 332,-54.5"/>
<polyline fill="none" stroke="black" points="338,-54.5 332,-54.5"/>
<text xml:space="preserve" text-anchor="middle" x="236.62" y="-37.45" font-family="Times,serif" font-size="14.00">Counterfactual dataset is available</text>
</g>
<!-- fair:e2&#45;&gt;fair:s -->
<g id="edge3" class="edge">
<title>fair:e2&#45;&gt;fair:s</title>
<path fill="none" stroke="black" d="M214.62,-60.8C203.71,-69.39 190.35,-79.89 178.44,-89.26"/>
<polygon fill="black" stroke="black" points="176.57,-86.28 170.87,-95.22 180.89,-91.79 176.57,-86.28"/>
</g>
</g>
</svg>
