<?xml version="1.0" encoding="UTF-8" standalone="no"?>
<!DOCTYPE svg PUBLIC "-//W3C//DTD SVG 1.1//EN"
 "http://www.w3.org/Graphics/SVG/1.1/DTD/svg11.dtd">
<!-- Generated by graphviz version 14.1.4 (20260321.0153)
 -->
<!-- Pages: 1 -->
<svg width="340pt" height="188pt"
 viewBox="0.00 0.00 340.00 188.00" xmlns="http://www.w3.org/2000/svg" xmlns:xlink="http://www.w3.org/1999/xlink">
<g id="graph0" class="graph" transform="scale(1 1) rotate(0) translate(4 184)">
<polygon fill="white" stroke="none" points="-4,4 -4,-184 336.18,-184 336.18,4 -4,4"/>
<!-- performant:c -->
<g id="performant:c" class="node">
<title>performant:c</title>
<polygon fill="lightgrey" stroke="black" points="241.59,-180 90.59,-180 90.59,-144 241.59,-144 241.59,-180"/>
<text xml:space="preserve" text-anchor="middle" x="166.09" y="-156.95" font-family="Times,serif" font-size="14.00">My model is performant</text>
</g>
<!-- performant:s -->
<g id="performant:s" class="node">
<title>performant:s</title>
<polygon fill="palegreen" stroke="black" points="332.18,-108 67.97,-108 0,-72 264.21,-72 332.18,-108"/>
<text xml:space="preserve" text-anchor="middle" x="166.09" y="-84.95" font-family="Times,serif" font-size="14.00">Accuracy is greater than 85</text>
</g>
<!-- performant:s&#45;&gt;performant:c -->
<g id="edge1" class="edge">
<title>performant:s&#45;&gt;performant:c</title>
<path fill="none" stroke="black" d="M166.09,-108.3C166.09,-115.59 166.09,-124.27 166.09,-132.46"/>
<polygon fill="black" stroke="black" points="162.59,-132.38 166.09,-142.38 169.59,-132.38 162.59,-132.38"/>
</g>
<!-- performant:e1 -->
<g id="performant:e1" class="node">
<title>performant:e1</title>
<polygon fill="#a4d3ee" stroke="black" points="149.72,-36 32.47,-36 32.47,0 149.72,0 149.72,-36"/>
<text xml:space="preserve" text-anchor="middle" x="91.09" y="-12.95" font-family="Times,serif" font-size="14.00">Model is available</text>
</g>
<!-- performant:e1&#45;&gt;performant:s -->
<g id="edge2" class="edge">
<title>performant:e1&#45;&gt;performant:s</title>
<path fill="none" stroke="black" d="M109.63,-36.3C118.55,-44.63 129.42,-54.78 139.23,-63.93"/>
<polygon fill="black" stroke="black" points="136.7,-66.36 146.4,-70.62 141.48,-61.24 136.7,-66.36"/>
</g>
<!-- performant:e2 -->
<g id="performant:e2" class="node">
<title>performant:e2</title>
<polygon fill="#a4d3ee" stroke="black" points="313.97,-36 168.22,-36 168.22,0 313.97,0 313.97,-36"/>
<text xml:space="preserve" text-anchor="middle" x="241.09" y="-12.95" font-family="Times,serif" font-size="14.00">Test dataset is available</text>
</g>
<!-- performant:e2&#45;&gt;performant:s -->
<g id="edge3" class="edge">
<title>performant:e2&#45;&gt;performant:s</title>
<path fill="none" stroke="black" d="M222.55,-36.3C213.63,-44.63 202.76,-54.78 192.95,-63.93"/>
<polygon fill="black" stroke="black" points="190.71,-61.24 185.78,-70.62 195.48,-66.36 190.71,-61.24"/>
</g>
</g>
</svg>
