<?xml version="1.0" encoding="UTF-8" standalone="no"?>
<!DOCTYPE svg PUBLIC "-//W3C//DTD SVG 1.1//EN"
 "http://www.w3.org/Graphics/SVG/1.1/DTD/svg11.dtd">
<!-- Generated by graphviz version 2.43.0 (0)
 -->
<!-- Title: %3 Pages: 1 -->
<svg width="684pt" height="332pt"
 viewBox="0.00 0.00 683.86 332.00" xmlns="http://www.w3.org/2000/svg" xmlns:xlink="http://www.w3.org/1999/xlink">
<g id="graph0" class="graph" transform="scale(1 1) rotate(0) translate(4 328)">
<title>%3</title>
<polygon fill="white" stroke="transparent" points="-4,4 -4,-328 679.86,-328 679.86,4 -4,4"/>
<!-- deployable_assembleConclusion -->
<g id="node1" class="node">
<title>deployable_assembleConclusion</title>
<polygon fill="#cccccc" stroke="black" points="424.5,-324 251.5,-324 251.5,-288 424.5,-288 424.5,-324"/>
<text text-anchor="middle" x="338" y="-302.3" font-family="Helvetica,sans-Serif" font-weight="bold" font-size="14.00" fill="white">Model is deployable</text>
</g>
<!-- deployable_fair_c -->
<g id="node2" class="node">
<title>deployable_fair_c</title>
<polygon fill="none" stroke="#0072b2" points="311.5,-180 178.5,-180 178.5,-144 311.5,-144 311.5,-180"/>
<text text-anchor="middle" x="245" y="-158.3" font-family="Times,serif" font-size="14.00">My model is fair</text>
</g>
<!-- deployable_assembleStrategy -->
<g id="node9" class="node">
<title>deployable_assembleStrategy</title>
<polygon fill="#cccccc" stroke="black" points="479.18,-234 408.59,-252 267.41,-252 196.82,-234 267.41,-216 408.59,-216 479.18,-234"/>
<text text-anchor="middle" x="338" y="-230.3" font-family="Helvetica,sans-Serif" font-weight="bold" font-size="14.00" fill="white">All conditions are met</text>
</g>
<!-- deployable_fair_c&#45;&gt;deployable_assembleStrategy -->
<g id="edge1" class="edge">
<title>deployable_fair_c&#45;&gt;deployable_assembleStrategy</title>
<path fill="none" stroke="black" d="M267.99,-180.3C279.81,-189.2 294.39,-200.18 307.18,-209.8"/>
<polygon fill="black" stroke="black" points="305.18,-212.68 315.28,-215.9 309.39,-207.09 305.18,-212.68"/>
</g>
<!-- deployable_fair_s -->
<g id="node3" class="node">
<title>deployable_fair_s</title>
<polygon fill="#f0c27f" stroke="black" points="307.67,-90 241.34,-108 108.66,-108 42.33,-90 108.66,-72 241.34,-72 307.67,-90"/>
<text text-anchor="middle" x="175" y="-86.3" font-family="Times,serif" font-size="14.00">Flip&#45;rate is below 10%</text>
</g>
<!-- deployable_fair_s&#45;&gt;deployable_fair_c -->
<g id="edge2" class="edge">
<title>deployable_fair_s&#45;&gt;deployable_fair_c</title>
<path fill="none" stroke="black" d="M192.3,-108.3C200.86,-116.86 211.34,-127.34 220.7,-136.7"/>
<polygon fill="black" stroke="black" points="218.35,-139.3 227.9,-143.9 223.3,-134.35 218.35,-139.3"/>
</g>
<!-- deployable_unified_0 -->
<g id="node4" class="node">
<title>deployable_unified_0</title>
<polygon fill="#9ecae1" stroke="black" points="424,-36 284,-36 284,0 430,0 430,-30 424,-36"/>
<polyline fill="none" stroke="black" points="424,-36 424,-30 "/>
<polyline fill="none" stroke="black" points="430,-30 424,-30 "/>
<text text-anchor="middle" x="357" y="-14.3" font-family="Times,serif" font-size="14.00">Model is available</text>
</g>
<!-- deployable_unified_0&#45;&gt;deployable_fair_s -->
<g id="edge3" class="edge">
<title>deployable_unified_0&#45;&gt;deployable_fair_s</title>
<path fill="none" stroke="black" d="M312.48,-36.12C287.27,-45.82 255.55,-58.02 228.93,-68.26"/>
<polygon fill="black" stroke="black" points="227.45,-65.08 219.38,-71.93 229.97,-71.61 227.45,-65.08"/>
</g>
<!-- deployable_performant_s -->
<g id="node7" class="node">
<title>deployable_performant_s</title>
<polygon fill="red" stroke="black" points="675.73,-90 588.36,-108 413.64,-108 326.27,-90 413.64,-72 588.36,-72 675.73,-90"/>
<text text-anchor="middle" x="501" y="-86.3" font-family="Helvetica,sans-Serif" font-weight="bold" font-size="14.00" fill="white">Accuracy is greater than 85</text>
</g>
<!-- deployable_unified_0&#45;&gt;deployable_performant_s -->
<g id="edge4" class="edge">
<title>deployable_unified_0&#45;&gt;deployable_performant_s</title>
<path fill="none" stroke="black" d="M392.23,-36.12C411.58,-45.53 435.77,-57.29 456.43,-67.33"/>
<polygon fill="black" stroke="black" points="455.11,-70.59 465.64,-71.81 458.17,-64.29 455.11,-70.59"/>
</g>
<!-- deployable_fair_e2 -->
<g id="node5" class="node">
<title>deployable_fair_e2</title>
<polygon fill="#9ecae1" stroke="black" points="260,-36 0,-36 0,0 266,0 266,-30 260,-36"/>
<polyline fill="none" stroke="black" points="260,-36 260,-30 "/>
<polyline fill="none" stroke="black" points="266,-30 260,-30 "/>
<text text-anchor="middle" x="133" y="-14.3" font-family="Times,serif" font-size="14.00">Counterfactual dataset is available</text>
</g>
<!-- deployable_fair_e2&#45;&gt;deployable_fair_s -->
<g id="edge5" class="edge">
<title>deployable_fair_e2&#45;&gt;deployable_fair_s</title>
<path fill="none" stroke="black" d="M143.38,-36.3C148.26,-44.44 154.19,-54.31 159.58,-63.3"/>
<polygon fill="black" stroke="black" points="156.59,-65.12 164.74,-71.9 162.59,-61.52 156.59,-65.12"/>
</g>
<!-- deployable_performant_c -->
<g id="node6" class="node">
<title>deployable_performant_c</title>
<polygon fill="#cccccc" stroke="#0072b2" points="567.5,-180 364.5,-180 364.5,-144 567.5,-144 567.5,-180"/>
<text text-anchor="middle" x="466" y="-158.3" font-family="Helvetica,sans-Serif" font-weight="bold" font-size="14.00" fill="white">My model is performant</text>
</g>
<!-- deployable_performant_c&#45;&gt;deployable_assembleStrategy -->
<g id="edge6" class="edge">
<title>deployable_performant_c&#45;&gt;deployable_assembleStrategy</title>
<path fill="none" stroke="#cccccc" d="M434.69,-180.12C417.8,-189.36 396.75,-200.87 378.62,-210.79"/>
<polygon fill="#cccccc" stroke="#cccccc" points="376.53,-207.94 369.43,-215.81 379.89,-214.08 376.53,-207.94"/>
</g>
<!-- deployable_performant_s&#45;&gt;deployable_performant_c -->
<g id="edge7" class="edge">
<title>deployable_performant_s&#45;&gt;deployable_performant_c</title>
<path fill="none" stroke="red" d="M492.35,-108.3C488.36,-116.27 483.55,-125.9 479.13,-134.74"/>
<polygon fill="red" stroke="red" points="475.89,-133.39 474.55,-143.9 482.15,-136.52 475.89,-133.39"/>
</g>
<!-- deployable_performant_e2 -->
<g id="node8" class="node">
<title>deployable_performant_e2</title>
<polygon fill="#9ecae1" stroke="black" points="631.5,-36 448.5,-36 448.5,0 637.5,0 637.5,-30 631.5,-36"/>
<polyline fill="none" stroke="black" points="631.5,-36 631.5,-30 "/>
<polyline fill="none" stroke="black" points="637.5,-30 631.5,-30 "/>
<text text-anchor="middle" x="543" y="-14.3" font-family="Times,serif" font-size="14.00">Test dataset is available</text>
</g>
<!-- deployable_performant_e2&#45;&gt;deployable_performant_s -->
<g id="edge8" class="edge">
<title>deployable_performant_e2&#45;&gt;deployable_performant_s</title>
<path fill="none" stroke="black" d="M532.62,-36.3C527.74,-44.44 521.81,-54.31 516.42,-63.3"/>
<polygon fill="black" stroke="black" points="513.41,-61.52 511.26,-71.9 519.41,-65.12 513.41,-61.52"/>
</g>
<!-- deployable_assembleStrategy&#45;&gt;deployable_assembleConclusion -->
<g id="edge9" class="edge">
<title>deployable_assembleStrategy&#45;&gt;deployable_assembleConclusion</title>
<path fill="none" stroke="#cccccc" d="M338,-252.3C338,-260.02 338,-269.29 338,-277.89"/>
<polygon fill="#cccccc" stroke="#cccccc" points="334.5,-277.9 338,-287.9 341.5,-277.9 334.5,-277.9"/>
</g>
</g>
</svg>
