<?xml version="1.0" encoding="UTF-8" standalone="no"?>
<!DOCTYPE svg PUBLIC "-//W3C//DTD SVG 1.1//EN"
 "http://www.w3.org/Graphics/SVG/1.1/DTD/svg11.dtd">
<!-- Generated by graphviz version 2.43.0 (0)
 -->
<!-- Pages: 1 -->
<svg width="916pt" height="332pt"
 viewBox="0.00 0.00 916.02 332.00" xmlns="http://www.w3.org/2000/svg" xmlns:xlink="http://www.w3.org/1999/xlink">
<g id="graph0" class="graph" transform="scale(1 1) rotate(0) translate(4 328)">
<polygon fill="white" stroke="transparent" points="-4,4 -4,-328 912.02,-328 912.02,4 -4,4"/>
<!-- c -->
<g id="c" class="node">
<title>c</title>
<polygon fill="#cccccc" stroke="black" points="539.53,-324 366.53,-324 366.53,-288 539.53,-288 539.53,-324"/>
<text text-anchor="middle" x="453.03" y="-302.3" font-family="Helvetica,sans-Serif" font-weight="bold" font-size="14.00" fill="white">Model is deployable</text>
</g>
<!-- s -->
<g id="s" class="node">
<title>s</title>
<polygon fill="red" stroke="black" points="444.1,-108 90.84,-108 -0.03,-72 353.23,-72 444.1,-108"/>
<text text-anchor="middle" x="222.03" y="-86.3" font-family="Helvetica,sans-Serif" font-weight="bold" font-size="14.00" fill="white">Accuracy is greater than 85</text>
</g>
<!-- c_perf -->
<g id="c_perf" class="node">
<title>c_perf</title>
<polygon fill="#cccccc" stroke="dodgerblue" points="461.53,-180 258.53,-180 258.53,-144 461.53,-144 461.53,-180"/>
<text text-anchor="middle" x="360.03" y="-158.3" font-family="Helvetica,sans-Serif" font-weight="bold" font-size="14.00" fill="white">My model is performant</text>
</g>
<!-- s&#45;&gt;c_perf -->
<g id="edge1" class="edge">
<title>s&#45;&gt;c_perf</title>
<path fill="none" stroke="red" d="M255.79,-108.12C274.25,-117.49 297.32,-129.19 317.05,-139.2"/>
<polygon fill="red" stroke="red" points="315.64,-142.41 326.15,-143.81 318.81,-136.17 315.64,-142.41"/>
</g>
<!-- AND -->
<g id="AND" class="node">
<title>AND</title>
<polygon fill="#cccccc" stroke="black" points="632.34,-252 347.11,-252 273.73,-216 558.96,-216 632.34,-252"/>
<text text-anchor="middle" x="453.03" y="-230.3" font-family="Helvetica,sans-Serif" font-weight="bold" font-size="14.00" fill="white">All conditions are met</text>
</g>
<!-- c_perf&#45;&gt;AND -->
<g id="edge8" class="edge">
<title>c_perf&#45;&gt;AND</title>
<path fill="none" stroke="#cccccc" d="M383.02,-180.3C394.85,-189.2 409.43,-200.18 422.21,-209.8"/>
<polygon fill="#cccccc" stroke="#cccccc" points="420.22,-212.68 430.31,-215.9 424.43,-207.09 420.22,-212.68"/>
</g>
<!-- e2_fair -->
<g id="e2_fair" class="node">
<title>e2_fair</title>
<polygon fill="#a4d3ee" stroke="black" points="818.03,-36 552.03,-36 552.03,0 818.03,0 818.03,-36"/>
<text text-anchor="middle" x="685.03" y="-14.3" font-family="Times,serif" font-size="14.00">Counterfactual dataset is available</text>
</g>
<!-- s_fair -->
<g id="s_fair" class="node">
<title>s_fair</title>
<polygon fill="palegreen" stroke="black" points="908.01,-108 553.31,-108 462.06,-72 816.76,-72 908.01,-108"/>
<text text-anchor="middle" x="685.03" y="-86.3" font-family="Times,serif" font-size="14.00">Assess counterfactual fairness</text>
</g>
<!-- e2_fair&#45;&gt;s_fair -->
<g id="edge2" class="edge">
<title>e2_fair&#45;&gt;s_fair</title>
<path fill="none" stroke="black" d="M685.03,-36.3C685.03,-44.02 685.03,-53.29 685.03,-61.89"/>
<polygon fill="black" stroke="black" points="681.53,-61.9 685.03,-71.9 688.53,-61.9 681.53,-61.9"/>
</g>
<!-- c_fair -->
<g id="c_fair" class="node">
<title>c_fair</title>
<polygon fill="none" stroke="dodgerblue" points="681.53,-180 548.53,-180 548.53,-144 681.53,-144 681.53,-180"/>
<text text-anchor="middle" x="615.03" y="-158.3" font-family="Times,serif" font-size="14.00">My model is fair</text>
</g>
<!-- s_fair&#45;&gt;c_fair -->
<g id="edge4" class="edge">
<title>s_fair&#45;&gt;c_fair</title>
<path fill="none" stroke="black" d="M667.73,-108.3C659.17,-116.86 648.69,-127.34 639.34,-136.7"/>
<polygon fill="black" stroke="black" points="636.74,-134.35 632.14,-143.9 641.69,-139.3 636.74,-134.35"/>
</g>
<!-- AND&#45;&gt;c -->
<g id="edge3" class="edge">
<title>AND&#45;&gt;c</title>
<path fill="none" stroke="#cccccc" d="M453.03,-252.3C453.03,-260.02 453.03,-269.29 453.03,-277.89"/>
<polygon fill="#cccccc" stroke="#cccccc" points="449.53,-277.9 453.03,-287.9 456.53,-277.9 449.53,-277.9"/>
</g>
<!-- c_fair&#45;&gt;AND -->
<g id="edge5" class="edge">
<title>c_fair&#45;&gt;AND</title>
<path fill="none" stroke="black" d="M575.41,-180.12C553.26,-189.69 525.47,-201.7 501.98,-211.85"/>
<polygon fill="black" stroke="black" points="500.33,-208.75 492.54,-215.93 503.1,-215.18 500.33,-208.75"/>
</g>
<!-- e1_fair -->
<g id="e1_fair" class="node">
<title>e1_fair</title>
<polygon fill="#a4d3ee" stroke="black" points="508.03,-36 362.03,-36 362.03,0 508.03,0 508.03,-36"/>
<text text-anchor="middle" x="435.03" y="-14.3" font-family="Times,serif" font-size="14.00">Model is available</text>
</g>
<!-- e1_fair&#45;&gt;s -->
<g id="edge6" class="edge">
<title>e1_fair&#45;&gt;s</title>
<path fill="none" stroke="black" d="M383.2,-36.03C353.18,-45.9 315.21,-58.38 283.67,-68.75"/>
<polygon fill="black" stroke="black" points="282.51,-65.44 274.1,-71.89 284.69,-72.09 282.51,-65.44"/>
</g>
<!-- e1_fair&#45;&gt;s_fair -->
<g id="edge7" class="edge">
<title>e1_fair&#45;&gt;s_fair</title>
<path fill="none" stroke="black" d="M495.87,-36.03C531.56,-46.03 576.83,-58.7 614.13,-69.15"/>
<polygon fill="black" stroke="black" points="613.35,-72.56 623.92,-71.89 615.24,-65.82 613.35,-72.56"/>
</g>
<!-- e2 -->
<g id="e2" class="node">
<title>e2</title>
<polygon fill="#a4d3ee" stroke="black" points="316.53,-36 127.53,-36 127.53,0 316.53,0 316.53,-36"/>
<text text-anchor="middle" x="222.03" y="-14.3" font-family="Times,serif" font-size="14.00">Test dataset is available</text>
</g>
<!-- e2&#45;&gt;s -->
<g id="edge9" class="edge">
<title>e2&#45;&gt;s</title>
<path fill="none" stroke="black" d="M222.03,-36.3C222.03,-44.02 222.03,-53.29 222.03,-61.89"/>
<polygon fill="black" stroke="black" points="218.53,-61.9 222.03,-71.9 225.53,-61.9 218.53,-61.9"/>
</g>
</g>
</svg>
