<?xml version="1.0" encoding="UTF-8" standalone="no"?>
<!DOCTYPE svg PUBLIC "-//W3C//DTD SVG 1.1//EN"
 "http://www.w3.org/Graphics/SVG/1.1/DTD/svg11.dtd">
<!-- Generated by graphviz version 14.1.2 (20260124.0452)
 -->
<!-- Pages: 1 -->
<svg width="718pt" height="476pt"
 viewBox="0.00 0.00 718.00 476.00" xmlns="http://www.w3.org/2000/svg" xmlns:xlink="http://www.w3.org/1999/xlink">
<g id="graph0" class="graph" transform="scale(1 1) rotate(0) translate(4 472)">
<polygon fill="white" stroke="none" points="-4,4 -4,-472 713.69,-472 713.69,4 -4,4"/>
<!-- converged -->
<g id="converged" class="node">
<title>converged</title>
<polygon fill="none" stroke="dodgerblue" points="464.1,-180 289.1,-180 289.1,-144 464.1,-144 464.1,-180"/>
<text xml:space="preserve" text-anchor="middle" x="376.6" y="-156.95" font-family="Times,serif" font-size="14.00">The trained model converges</text>
</g>
<!-- s -->
<g id="s" class="node">
<title>s</title>
<polygon fill="palegreen" stroke="black" points="709.69,-252 445.48,-252 377.51,-216 641.72,-216 709.69,-252"/>
<text xml:space="preserve" text-anchor="middle" x="543.6" y="-228.95" font-family="Times,serif" font-size="14.00">Accuracy is greater than 80</text>
</g>
<!-- converged&#45;&gt;s -->
<g id="edge1" class="edge">
<title>converged&#45;&gt;s</title>
<path fill="none" stroke="black" d="M418.31,-180.48C440.51,-189.79 468.02,-201.32 491.6,-211.21"/>
<polygon fill="black" stroke="black" points="490.16,-214.4 500.73,-215.03 492.86,-207.94 490.16,-214.4"/>
</g>
<!-- s_fair -->
<g id="s_fair" class="node">
<title>s_fair</title>
<polygon fill="palegreen" stroke="black" points="359.2,-252 73.5,-252 0,-216 285.7,-216 359.2,-252"/>
<text xml:space="preserve" text-anchor="middle" x="179.6" y="-228.95" font-family="Times,serif" font-size="14.00">Assess counterfactual fairness</text>
</g>
<!-- converged&#45;&gt;s_fair -->
<g id="edge2" class="edge">
<title>converged&#45;&gt;s_fair</title>
<path fill="none" stroke="black" d="M327.39,-180.48C300.61,-190 267.29,-201.84 239.06,-211.87"/>
<polygon fill="black" stroke="black" points="238.19,-208.47 229.94,-215.11 240.54,-215.06 238.19,-208.47"/>
</g>
<!-- c_perf -->
<g id="c_perf" class="node">
<title>c_perf</title>
<polygon fill="none" stroke="dodgerblue" points="565.1,-324 414.1,-324 414.1,-288 565.1,-288 565.1,-324"/>
<text xml:space="preserve" text-anchor="middle" x="489.6" y="-300.95" font-family="Times,serif" font-size="14.00">My model is performant</text>
</g>
<!-- s&#45;&gt;c_perf -->
<g id="edge3" class="edge">
<title>s&#45;&gt;c_perf</title>
<path fill="none" stroke="black" d="M530.25,-252.3C524.04,-260.36 516.52,-270.11 509.64,-279.02"/>
<polygon fill="black" stroke="black" points="507.05,-276.64 503.72,-286.7 512.6,-280.92 507.05,-276.64"/>
</g>
<!-- c_fair -->
<g id="c_fair" class="node">
<title>c_fair</title>
<polygon fill="none" stroke="dodgerblue" points="342.1,-324 233.1,-324 233.1,-288 342.1,-288 342.1,-324"/>
<text xml:space="preserve" text-anchor="middle" x="287.6" y="-300.95" font-family="Times,serif" font-size="14.00">My model is fair</text>
</g>
<!-- s_fair&#45;&gt;c_fair -->
<g id="edge6" class="edge">
<title>s_fair&#45;&gt;c_fair</title>
<path fill="none" stroke="black" d="M206.57,-252.48C220.2,-261.32 236.93,-272.16 251.64,-281.7"/>
<polygon fill="black" stroke="black" points="249.4,-284.41 259.7,-286.92 253.21,-278.54 249.4,-284.41"/>
</g>
<!-- c -->
<g id="c" class="node">
<title>c</title>
<polygon fill="lightgrey" stroke="black" points="425.47,-468 297.72,-468 297.72,-432 425.47,-432 425.47,-468"/>
<text xml:space="preserve" text-anchor="middle" x="361.6" y="-444.95" font-family="Times,serif" font-size="14.00">Model is deployable</text>
</g>
<!-- AND -->
<g id="AND" class="node">
<title>AND</title>
<polygon fill="palegreen" stroke="black" points="499.92,-396 279.88,-396 223.27,-360 443.32,-360 499.92,-396"/>
<text xml:space="preserve" text-anchor="middle" x="361.6" y="-372.95" font-family="Times,serif" font-size="14.00">All conditions are met</text>
</g>
<!-- c_perf&#45;&gt;AND -->
<g id="edge10" class="edge">
<title>c_perf&#45;&gt;AND</title>
<path fill="none" stroke="black" d="M457.63,-324.48C441.16,-333.49 420.89,-344.58 403.22,-354.24"/>
<polygon fill="black" stroke="black" points="401.58,-351.14 394.49,-359.01 404.94,-357.29 401.58,-351.14"/>
</g>
<!-- e2_fair -->
<g id="e2_fair" class="node">
<title>e2_fair</title>
<polygon fill="#a4d3ee" stroke="black" points="270.97,-180 68.22,-180 68.22,-144 270.97,-144 270.97,-180"/>
<text xml:space="preserve" text-anchor="middle" x="169.6" y="-156.95" font-family="Times,serif" font-size="14.00">Counterfactual dataset is available</text>
</g>
<!-- e2_fair&#45;&gt;s_fair -->
<g id="edge4" class="edge">
<title>e2_fair&#45;&gt;s_fair</title>
<path fill="none" stroke="black" d="M172.07,-180.3C173.12,-187.68 174.38,-196.48 175.56,-204.75"/>
<polygon fill="black" stroke="black" points="172.06,-204.99 176.94,-214.4 178.99,-204 172.06,-204.99"/>
</g>
<!-- AND&#45;&gt;c -->
<g id="edge5" class="edge">
<title>AND&#45;&gt;c</title>
<path fill="none" stroke="black" d="M361.6,-396.3C361.6,-403.59 361.6,-412.27 361.6,-420.46"/>
<polygon fill="black" stroke="black" points="358.1,-420.38 361.6,-430.38 365.1,-420.38 358.1,-420.38"/>
</g>
<!-- c_fair&#45;&gt;AND -->
<g id="edge9" class="edge">
<title>c_fair&#45;&gt;AND</title>
<path fill="none" stroke="black" d="M305.89,-324.3C314.7,-332.63 325.42,-342.78 335.1,-351.93"/>
<polygon fill="black" stroke="black" points="332.49,-354.28 342.16,-358.61 337.3,-349.2 332.49,-354.28"/>
</g>
<!-- check_convergence -->
<g id="check_convergence" class="node">
<title>check_convergence</title>
<polygon fill="palegreen" stroke="black" points="608.72,-108 239.46,-108 144.47,-72 513.73,-72 608.72,-108"/>
<text xml:space="preserve" text-anchor="middle" x="376.6" y="-84.95" font-family="Times,serif" font-size="14.00">Assessing logs to measure convergence</text>
</g>
<!-- check_convergence&#45;&gt;converged -->
<g id="edge7" class="edge">
<title>check_convergence&#45;&gt;converged</title>
<path fill="none" stroke="black" d="M376.6,-108.3C376.6,-115.59 376.6,-124.27 376.6,-132.46"/>
<polygon fill="black" stroke="black" points="373.1,-132.38 376.6,-142.38 380.1,-132.38 373.1,-132.38"/>
</g>
<!-- e2_conv -->
<g id="e2_conv" class="node">
<title>e2_conv</title>
<polygon fill="#a4d3ee" stroke="black" points="373.6,-36 189.6,-36 189.6,0 373.6,0 373.6,-36"/>
<text xml:space="preserve" text-anchor="middle" x="281.6" y="-12.95" font-family="Times,serif" font-size="14.00">Intermediate logs are available</text>
</g>
<!-- e2_conv&#45;&gt;check_convergence -->
<g id="edge8" class="edge">
<title>e2_conv&#45;&gt;check_convergence</title>
<path fill="none" stroke="black" d="M305.08,-36.3C316.84,-44.97 331.27,-55.6 344.08,-65.04"/>
<polygon fill="black" stroke="black" points="341.71,-67.64 351.84,-70.76 345.86,-62.01 341.71,-67.64"/>
</g>
<!-- e1_conv -->
<g id="e1_conv" class="node">
<title>e1_conv</title>
<polygon fill="#a4d3ee" stroke="black" points="553.35,-36 391.85,-36 391.85,0 553.35,0 553.35,-36"/>
<text xml:space="preserve" text-anchor="middle" x="472.6" y="-12.95" font-family="Times,serif" font-size="14.00">Trained model is available</text>
</g>
<!-- e1_conv&#45;&gt;check_convergence -->
<g id="edge11" class="edge">
<title>e1_conv&#45;&gt;check_convergence</title>
<path fill="none" stroke="black" d="M448.87,-36.3C436.98,-44.97 422.4,-55.6 409.46,-65.04"/>
<polygon fill="black" stroke="black" points="407.63,-62.04 401.61,-70.76 411.75,-67.7 407.63,-62.04"/>
</g>
<!-- e2 -->
<g id="e2" class="node">
<title>e2</title>
<polygon fill="#a4d3ee" stroke="black" points="627.47,-180 481.72,-180 481.72,-144 627.47,-144 627.47,-180"/>
<text xml:space="preserve" text-anchor="middle" x="554.6" y="-156.95" font-family="Times,serif" font-size="14.00">Test dataset is available</text>
</g>
<!-- e2&#45;&gt;s -->
<g id="edge12" class="edge">
<title>e2&#45;&gt;s</title>
<path fill="none" stroke="black" d="M551.88,-180.3C550.72,-187.68 549.34,-196.48 548.04,-204.75"/>
<polygon fill="black" stroke="black" points="544.62,-203.98 546.52,-214.4 551.53,-205.07 544.62,-203.98"/>
</g>
</g>
</svg>
