<?xml version="1.0" encoding="UTF-8" standalone="no"?>
<!DOCTYPE svg PUBLIC "-//W3C//DTD SVG 1.1//EN"
 "http://www.w3.org/Graphics/SVG/1.1/DTD/svg11.dtd">
<!-- Generated by graphviz version 2.43.0 (0)
 -->
<!-- Pages: 1 -->
<svg width="882pt" height="476pt"
 viewBox="0.00 0.00 881.87 476.00" xmlns="http://www.w3.org/2000/svg" xmlns:xlink="http://www.w3.org/1999/xlink">
<g id="graph0" class="graph" transform="scale(1 1) rotate(0) translate(4 472)">
<polygon fill="white" stroke="transparent" points="-4,4 -4,-472 877.87,-472 877.87,4 -4,4"/>
<!-- converged -->
<g id="converged" class="node">
<title>converged</title>
<polygon fill="none" stroke="dodgerblue" points="576.99,-180 352.99,-180 352.99,-144 576.99,-144 576.99,-180"/>
<text text-anchor="middle" x="464.99" y="-158.3" font-family="Times,serif" font-size="14.00">The trained model converges</text>
</g>
<!-- s -->
<g id="s" class="node">
<title>s</title>
<polygon fill="palegreen" stroke="black" points="873.75,-252 548.02,-252 464.22,-216 789.96,-216 873.75,-252"/>
<text text-anchor="middle" x="668.99" y="-230.3" font-family="Times,serif" font-size="14.00">Accuracy is greater than 80</text>
</g>
<!-- converged&#45;&gt;s -->
<g id="edge1" class="edge">
<title>converged&#45;&gt;s</title>
<path fill="none" stroke="black" d="M514.63,-180.03C543.26,-189.86 579.43,-202.27 609.57,-212.61"/>
<polygon fill="black" stroke="black" points="608.53,-215.95 619.12,-215.89 610.8,-209.33 608.53,-215.95"/>
</g>
<!-- s_fair -->
<g id="s_fair" class="node">
<title>s_fair</title>
<polygon fill="palegreen" stroke="black" points="445.96,-252 91.26,-252 0.01,-216 354.72,-216 445.96,-252"/>
<text text-anchor="middle" x="222.99" y="-230.3" font-family="Times,serif" font-size="14.00">Assess counterfactual fairness</text>
</g>
<!-- converged&#45;&gt;s_fair -->
<g id="edge2" class="edge">
<title>converged&#45;&gt;s_fair</title>
<path fill="none" stroke="black" d="M406.1,-180.03C371.7,-189.99 328.11,-202.59 292.09,-213.01"/>
<polygon fill="black" stroke="black" points="290.78,-209.75 282.14,-215.89 292.72,-216.47 290.78,-209.75"/>
</g>
<!-- c_perf -->
<g id="c_perf" class="node">
<title>c_perf</title>
<polygon fill="none" stroke="dodgerblue" points="696.49,-324 507.49,-324 507.49,-288 696.49,-288 696.49,-324"/>
<text text-anchor="middle" x="601.99" y="-302.3" font-family="Times,serif" font-size="14.00">My model is performant</text>
</g>
<!-- s&#45;&gt;c_perf -->
<g id="edge3" class="edge">
<title>s&#45;&gt;c_perf</title>
<path fill="none" stroke="black" d="M652.43,-252.3C644.31,-260.78 634.4,-271.14 625.52,-280.42"/>
<polygon fill="black" stroke="black" points="622.75,-278.25 618.36,-287.9 627.8,-283.09 622.75,-278.25"/>
</g>
<!-- c_fair -->
<g id="c_fair" class="node">
<title>c_fair</title>
<polygon fill="none" stroke="dodgerblue" points="422.49,-324 289.49,-324 289.49,-288 422.49,-288 422.49,-324"/>
<text text-anchor="middle" x="355.99" y="-302.3" font-family="Times,serif" font-size="14.00">My model is fair</text>
</g>
<!-- s_fair&#45;&gt;c_fair -->
<g id="edge6" class="edge">
<title>s_fair&#45;&gt;c_fair</title>
<path fill="none" stroke="black" d="M255.52,-252.12C273.24,-261.45 295.34,-273.08 314.3,-283.06"/>
<polygon fill="black" stroke="black" points="312.85,-286.25 323.33,-287.81 316.11,-280.06 312.85,-286.25"/>
</g>
<!-- c -->
<g id="c" class="node">
<title>c</title>
<polygon fill="lightgrey" stroke="black" points="524.49,-468 365.49,-468 365.49,-432 524.49,-432 524.49,-468"/>
<text text-anchor="middle" x="444.99" y="-446.3" font-family="Times,serif" font-size="14.00">Model is deployable</text>
</g>
<!-- AND -->
<g id="AND" class="node">
<title>AND</title>
<polygon fill="palegreen" stroke="black" points="609.7,-396 347.68,-396 280.27,-360 542.3,-360 609.7,-396"/>
<text text-anchor="middle" x="444.99" y="-374.3" font-family="Times,serif" font-size="14.00">All conditions are met</text>
</g>
<!-- c_perf&#45;&gt;AND -->
<g id="edge10" class="edge">
<title>c_perf&#45;&gt;AND</title>
<path fill="none" stroke="black" d="M563.58,-324.12C542.12,-333.69 515.19,-345.7 492.42,-355.85"/>
<polygon fill="black" stroke="black" points="490.98,-352.66 483.27,-359.93 493.83,-359.06 490.98,-352.66"/>
</g>
<!-- e2_fair -->
<g id="e2_fair" class="node">
<title>e2_fair</title>
<polygon fill="#a4d3ee" stroke="black" points="334.99,-180 68.99,-180 68.99,-144 334.99,-144 334.99,-180"/>
<text text-anchor="middle" x="201.99" y="-158.3" font-family="Times,serif" font-size="14.00">Counterfactual dataset is available</text>
</g>
<!-- e2_fair&#45;&gt;s_fair -->
<g id="edge4" class="edge">
<title>e2_fair&#45;&gt;s_fair</title>
<path fill="none" stroke="black" d="M207.18,-180.3C209.52,-188.1 212.34,-197.49 214.94,-206.17"/>
<polygon fill="black" stroke="black" points="211.63,-207.32 217.86,-215.9 218.34,-205.31 211.63,-207.32"/>
</g>
<!-- AND&#45;&gt;c -->
<g id="edge5" class="edge">
<title>AND&#45;&gt;c</title>
<path fill="none" stroke="black" d="M444.99,-396.3C444.99,-404.02 444.99,-413.29 444.99,-421.89"/>
<polygon fill="black" stroke="black" points="441.49,-421.9 444.99,-431.9 448.49,-421.9 441.49,-421.9"/>
</g>
<!-- c_fair&#45;&gt;AND -->
<g id="edge9" class="edge">
<title>c_fair&#45;&gt;AND</title>
<path fill="none" stroke="black" d="M377.99,-324.3C389.2,-333.12 402.99,-343.97 415.14,-353.53"/>
<polygon fill="black" stroke="black" points="413.22,-356.46 423.24,-359.9 417.54,-350.96 413.22,-356.46"/>
</g>
<!-- check_convergence -->
<g id="check_convergence" class="node">
<title>check_convergence</title>
<polygon fill="palegreen" stroke="black" points="750.75,-108 296.17,-108 179.22,-72 633.81,-72 750.75,-108"/>
<text text-anchor="middle" x="464.99" y="-86.3" font-family="Times,serif" font-size="14.00">Assessing logs to measure convergence</text>
</g>
<!-- check_convergence&#45;&gt;converged -->
<g id="edge7" class="edge">
<title>check_convergence&#45;&gt;converged</title>
<path fill="none" stroke="black" d="M464.99,-108.3C464.99,-116.02 464.99,-125.29 464.99,-133.89"/>
<polygon fill="black" stroke="black" points="461.49,-133.9 464.99,-143.9 468.49,-133.9 461.49,-133.9"/>
</g>
<!-- e2_conv -->
<g id="e2_conv" class="node">
<title>e2_conv</title>
<polygon fill="#a4d3ee" stroke="black" points="464.49,-36 225.49,-36 225.49,0 464.49,0 464.49,-36"/>
<text text-anchor="middle" x="344.99" y="-14.3" font-family="Times,serif" font-size="14.00">Intermediate logs are available</text>
</g>
<!-- e2_conv&#45;&gt;check_convergence -->
<g id="edge8" class="edge">
<title>e2_conv&#45;&gt;check_convergence</title>
<path fill="none" stroke="black" d="M374.34,-36.12C390.03,-45.28 409.54,-56.66 426.44,-66.52"/>
<polygon fill="black" stroke="black" points="425.12,-69.79 435.52,-71.81 428.65,-63.75 425.12,-69.79"/>
</g>
<!-- e1_conv -->
<g id="e1_conv" class="node">
<title>e1_conv</title>
<polygon fill="#a4d3ee" stroke="black" points="686.99,-36 482.99,-36 482.99,0 686.99,0 686.99,-36"/>
<text text-anchor="middle" x="584.99" y="-14.3" font-family="Times,serif" font-size="14.00">Trained model is available</text>
</g>
<!-- e1_conv&#45;&gt;check_convergence -->
<g id="edge11" class="edge">
<title>e1_conv&#45;&gt;check_convergence</title>
<path fill="none" stroke="black" d="M555.63,-36.12C539.94,-45.28 520.43,-56.66 503.53,-66.52"/>
<polygon fill="black" stroke="black" points="501.33,-63.75 494.46,-71.81 504.86,-69.79 501.33,-63.75"/>
</g>
<!-- e2 -->
<g id="e2" class="node">
<title>e2</title>
<polygon fill="#a4d3ee" stroke="black" points="784.49,-180 595.49,-180 595.49,-144 784.49,-144 784.49,-180"/>
<text text-anchor="middle" x="689.99" y="-158.3" font-family="Times,serif" font-size="14.00">Test dataset is available</text>
</g>
<!-- e2&#45;&gt;s -->
<g id="edge12" class="edge">
<title>e2&#45;&gt;s</title>
<path fill="none" stroke="black" d="M684.8,-180.3C682.46,-188.1 679.64,-197.49 677.04,-206.17"/>
<polygon fill="black" stroke="black" points="673.64,-205.31 674.12,-215.9 680.35,-207.32 673.64,-205.31"/>
</g>
</g>
</svg>
