<?xml version="1.0" encoding="UTF-8" standalone="no"?>
<!DOCTYPE svg PUBLIC "-//W3C//DTD SVG 1.1//EN"
 "http://www.w3.org/Graphics/SVG/1.1/DTD/svg11.dtd">
<!-- Generated by graphviz version 2.43.0 (0)
 -->
<!-- Title: %3 Pages: 1 -->
<svg width="362pt" height="188pt"
 viewBox="0.00 0.00 361.50 188.00" xmlns="http://www.w3.org/2000/svg" xmlns:xlink="http://www.w3.org/1999/xlink">
<g id="graph0" class="graph" transform="scale(1 1) rotate(0) translate(4 184)">
<title>%3</title>
<polygon fill="white" stroke="transparent" points="-4,4 -4,-184 357.5,-184 357.5,4 -4,4"/>
<!-- performant_c -->
<g id="node1" class="node">
<title>performant_c</title>
<path fill="lightgrey" stroke="black" d="M248.5,-180C248.5,-180 83.5,-180 83.5,-180 77.5,-180 71.5,-174 71.5,-168 71.5,-168 71.5,-156 71.5,-156 71.5,-150 77.5,-144 83.5,-144 83.5,-144 248.5,-144 248.5,-144 254.5,-144 260.5,-150 260.5,-156 260.5,-156 260.5,-168 260.5,-168 260.5,-174 254.5,-180 248.5,-180"/>
<text text-anchor="middle" x="166" y="-158.3" font-family="Times,serif" font-size="14.00">My model is performant</text>
</g>
<!-- performant_s -->
<g id="node2" class="node">
<title>performant_s</title>
<polygon fill="#f0c27f" stroke="black" points="327.21,-90 246.61,-108 85.39,-108 4.79,-90 85.39,-72 246.61,-72 327.21,-90"/>
<text text-anchor="middle" x="166" y="-86.3" font-family="Times,serif" font-size="14.00">Accuracy is greater than 85</text>
</g>
<!-- performant_s&#45;&gt;performant_c -->
<g id="edge1" class="edge">
<title>performant_s&#45;&gt;performant_c</title>
<path fill="none" stroke="black" d="M166,-108.3C166,-116.02 166,-125.29 166,-133.89"/>
<polygon fill="black" stroke="black" points="162.5,-133.9 166,-143.9 169.5,-133.9 162.5,-133.9"/>
</g>
<!-- performant_e1 -->
<g id="node3" class="node">
<title>performant_e1</title>
<polygon fill="#9ecae1" stroke="black" points="140,-36 0,-36 0,0 146,0 146,-30 140,-36"/>
<polyline fill="none" stroke="black" points="140,-36 140,-30 "/>
<polyline fill="none" stroke="black" points="146,-30 140,-30 "/>
<text text-anchor="middle" x="73" y="-14.3" font-family="Times,serif" font-size="14.00">Model is available</text>
</g>
<!-- performant_e1&#45;&gt;performant_s -->
<g id="edge2" class="edge">
<title>performant_e1&#45;&gt;performant_s</title>
<path fill="none" stroke="black" d="M95.99,-36.3C107.81,-45.2 122.39,-56.18 135.18,-65.8"/>
<polygon fill="black" stroke="black" points="133.18,-68.68 143.28,-71.9 137.39,-63.09 133.18,-68.68"/>
</g>
<!-- performant_e2 -->
<g id="node4" class="node">
<title>performant_e2</title>
<polygon fill="#9ecae1" stroke="black" points="347.5,-36 164.5,-36 164.5,0 353.5,0 353.5,-30 347.5,-36"/>
<polyline fill="none" stroke="black" points="347.5,-36 347.5,-30 "/>
<polyline fill="none" stroke="black" points="353.5,-30 347.5,-30 "/>
<text text-anchor="middle" x="259" y="-14.3" font-family="Times,serif" font-size="14.00">Test dataset is available</text>
</g>
<!-- performant_e2&#45;&gt;performant_s -->
<g id="edge3" class="edge">
<title>performant_e2&#45;&gt;performant_s</title>
<path fill="none" stroke="black" d="M236.01,-36.3C224.19,-45.2 209.61,-56.18 196.82,-65.8"/>
<polygon fill="black" stroke="black" points="194.61,-63.09 188.72,-71.9 198.82,-68.68 194.61,-63.09"/>
</g>
</g>
</svg>
