<svg width="348px" height="213px"
 viewBox="0.00 0.00 348.00 213.00" xmlns="http://www.w3.org/2000/svg" xmlns:xlink="http://www.w3.org/1999/xlink">
<g id="graph0" class="graph" transform="scale(1.0 1.0) rotate(0.0) translate(4.0 208.5)">
<polygon fill="white" stroke="none" points="-4,4 -4,-208.5 343.68,-208.5 343.68,4 -4,4"/>
<text xml:space="preserve" text-anchor="start" x="139.47" y="-7.2" font-family="Times,serif" font-size="14.00">performant</text>
<!-- c -->
<g id="performant:c" class="node">
<title>c</title>
<path fill="lightgrey" stroke="black" stroke-width="1.01" d="M233.34,-204.5C233.34,-204.5 106.34,-204.5 106.34,-204.5 100.34,-204.5 94.34,-198.5 94.34,-192.5 94.34,-192.5 94.34,-180.5 94.34,-180.5 94.34,-174.5 100.34,-168.5 106.34,-168.5 106.34,-168.5 233.34,-168.5 233.34,-168.5 239.34,-168.5 245.34,-174.5 245.34,-180.5 245.34,-180.5 245.34,-192.5 245.34,-192.5 245.34,-198.5 239.34,-204.5 233.34,-204.5"/>
<text xml:space="preserve" text-anchor="start" x="102.34" y="-181.45" font-family="Times,serif" font-size="14.00">My model is performant</text>
</g>
<!-- s -->
<g id="performant:s" class="node">
<title>s</title>
<polygon fill="palegreen" stroke="black" stroke-width="1.01" points="339.68,-132.5 69.5,-132.5 0,-96.5 270.18,-96.5 339.68,-132.5"/>
<text xml:space="preserve" text-anchor="start" x="92.97" y="-109.45" font-family="Times,serif" font-size="14.00">Accuracy is greater than .85</text>
</g>
<!-- s&#45;&gt;c -->
<g id="edge1" class="edge">
<title>s&#45;&gt;c</title>
<path fill="none" stroke="black" d="M169.84,-132.8C169.84,-140.09 169.84,-148.77 169.84,-156.96"/>
<polygon fill="black" stroke="black" points="166.34,-156.88 169.84,-166.88 173.34,-156.88 166.34,-156.88"/>
</g>
<!-- e1 -->
<g id="performant:e1" class="node">
<title>e1</title>
<polygon fill="#a4d3ee" stroke="black" stroke-width="1.01" points="147.47,-60.5 36.22,-60.5 36.22,-24.5 153.47,-24.5 153.47,-54.5 147.47,-60.5"/>
<polyline fill="none" stroke="black" stroke-width="1.01" points="147.47,-60.5 147.47,-54.5"/>
<polyline fill="none" stroke="black" stroke-width="1.01" points="153.47,-54.5 147.47,-54.5"/>
<text xml:space="preserve" text-anchor="start" x="44.22" y="-37.45" font-family="Times,serif" font-size="14.00">Model is available</text>
</g>
<!-- e1&#45;&gt;s -->
<g id="edge2" class="edge">
<title>e1&#45;&gt;s</title>
<path fill="none" stroke="black" d="M113.38,-60.8C122.31,-69.13 133.17,-79.28 142.98,-88.43"/>
<polygon fill="black" stroke="black" points="140.45,-90.86 150.15,-95.12 145.23,-85.74 140.45,-90.86"/>
</g>
<!-- e2 -->
<g id="performant:e2" class="node">
<title>e2</title>
<polygon fill="#a4d3ee" stroke="black" stroke-width="1.01" points="311.72,-60.5 171.97,-60.5 171.97,-24.5 317.72,-24.5 317.72,-54.5 311.72,-60.5"/>
<polyline fill="none" stroke="black" stroke-width="1.01" points="311.72,-60.5 311.72,-54.5"/>
<polyline fill="none" stroke="black" stroke-width="1.01" points="317.72,-54.5 311.72,-54.5"/>
<text xml:space="preserve" text-anchor="start" x="179.97" y="-37.45" font-family="Times,serif" font-size="14.00">Test dataset is available</text>
</g>
<!-- e2&#45;&gt;s -->
<g id="edge3" class="edge">
<title>e2&#45;&gt;s</title>
<path fill="none" stroke="black" d="M226.3,-60.8C217.38,-69.13 206.51,-79.28 196.7,-88.43"/>
<polygon fill="black" stroke="black" points="194.46,-85.74 189.53,-95.12 199.23,-90.86 194.46,-85.74"/>
</g>
</g>
</svg>
