<svg width="340px" height="213px"
 viewBox="0.00 0.00 340.00 213.00" xmlns="http://www.w3.org/2000/svg" xmlns:xlink="http://www.w3.org/1999/xlink">
<g id="graph0" class="graph" transform="scale(1.0 1.0) rotate(0.0) translate(4.0 208.5)">
<polygon fill="white" stroke="none" points="-4,4 -4,-208.5 336.18,-208.5 336.18,4 -4,4"/>
<text xml:space="preserve" text-anchor="start" x="135.72" y="-7.2" font-family="Times,serif" font-size="14.00">performant</text>
<!-- c -->
<g id="performant:c" class="node">
<title>c</title>
<path fill="lightgrey" stroke="black" stroke-width="1.01" d="M229.59,-204.5C229.59,-204.5 102.59,-204.5 102.59,-204.5 96.59,-204.5 90.59,-198.5 90.59,-192.5 90.59,-192.5 90.59,-180.5 90.59,-180.5 90.59,-174.5 96.59,-168.5 102.59,-168.5 102.59,-168.5 229.59,-168.5 229.59,-168.5 235.59,-168.5 241.59,-174.5 241.59,-180.5 241.59,-180.5 241.59,-192.5 241.59,-192.5 241.59,-198.5 235.59,-204.5 229.59,-204.5"/>
<text xml:space="preserve" text-anchor="start" x="98.59" y="-181.45" font-family="Times,serif" font-size="14.00">My model is performant</text>
</g>
<!-- s -->
<g id="performant:s" class="node">
<title>s</title>
<polygon fill="palegreen" stroke="black" stroke-width="1.01" points="332.18,-132.5 67.97,-132.5 0,-96.5 264.21,-96.5 332.18,-132.5"/>
<text xml:space="preserve" text-anchor="start" x="91.09" y="-109.45" font-family="Times,serif" font-size="14.00">Accuracy is greater than 85</text>
</g>
<!-- s&#45;&gt;c -->
<g id="edge1" class="edge">
<title>s&#45;&gt;c</title>
<path fill="none" stroke="black" d="M166.09,-132.8C166.09,-140.09 166.09,-148.77 166.09,-156.96"/>
<polygon fill="black" stroke="black" points="162.59,-156.88 166.09,-166.88 169.59,-156.88 162.59,-156.88"/>
</g>
<!-- e1 -->
<g id="performant:e1" class="node">
<title>e1</title>
<polygon fill="#a4d3ee" stroke="black" stroke-width="1.01" points="143.72,-60.5 32.47,-60.5 32.47,-24.5 149.72,-24.5 149.72,-54.5 143.72,-60.5"/>
<polyline fill="none" stroke="black" stroke-width="1.01" points="143.72,-60.5 143.72,-54.5"/>
<polyline fill="none" stroke="black" stroke-width="1.01" points="149.72,-54.5 143.72,-54.5"/>
<text xml:space="preserve" text-anchor="start" x="40.47" y="-37.45" font-family="Times,serif" font-size="14.00">Model is available</text>
</g>
<!-- e1&#45;&gt;s -->
<g id="edge2" class="edge">
<title>e1&#45;&gt;s</title>
<path fill="none" stroke="black" d="M109.63,-60.8C118.55,-69.13 129.42,-79.28 139.23,-88.43"/>
<polygon fill="black" stroke="black" points="136.7,-90.86 146.4,-95.12 141.48,-85.74 136.7,-90.86"/>
</g>
<!-- e2 -->
<g id="performant:e2" class="node">
<title>e2</title>
<polygon fill="#a4d3ee" stroke="black" stroke-width="1.01" points="307.97,-60.5 168.22,-60.5 168.22,-24.5 313.97,-24.5 313.97,-54.5 307.97,-60.5"/>
<polyline fill="none" stroke="black" stroke-width="1.01" points="307.97,-60.5 307.97,-54.5"/>
<polyline fill="none" stroke="black" stroke-width="1.01" points="313.97,-54.5 307.97,-54.5"/>
<text xml:space="preserve" text-anchor="start" x="176.22" y="-37.45" font-family="Times,serif" font-size="14.00">Test dataset is available</text>
</g>
<!-- e2&#45;&gt;s -->
<g id="edge3" class="edge">
<title>e2&#45;&gt;s</title>
<path fill="none" stroke="black" d="M222.55,-60.8C213.63,-69.13 202.76,-79.28 192.95,-88.43"/>
<polygon fill="black" stroke="black" points="190.71,-85.74 185.78,-95.12 195.48,-90.86 190.71,-85.74"/>
</g>
</g>
</svg>
