<?xml version="1.0" encoding="UTF-8" standalone="no"?>
<!DOCTYPE svg PUBLIC "-//W3C//DTD SVG 1.1//EN"
 "http://www.w3.org/Graphics/SVG/1.1/DTD/svg11.dtd">
<!-- Generated by graphviz version 14.1.5 (20260411.2331)
 -->
<!-- Title: performant Pages: 1 -->
<svg width="290pt" height="213pt"
 viewBox="0.00 0.00 290.00 213.00" xmlns="http://www.w3.org/2000/svg" xmlns:xlink="http://www.w3.org/1999/xlink">
<g id="graph0" class="graph" transform="scale(1 1) rotate(0) translate(4 208.5)">
<title>performant</title>
<polygon fill="white" stroke="none" points="-4,4 -4,-208.5 285.5,-208.5 285.5,4 -4,4"/>
<text xml:space="preserve" text-anchor="middle" x="140.75" y="-7.2" font-family="Times,serif" font-size="14.00">performant</text>
<!-- performant:c -->
<g id="performant:c" class="node">
<title>performant:c</title>
<path fill="lightgrey" stroke="black" d="M197.12,-204.5C197.12,-204.5 70.12,-204.5 70.12,-204.5 64.12,-204.5 58.12,-198.5 58.12,-192.5 58.12,-192.5 58.12,-180.5 58.12,-180.5 58.12,-174.5 64.12,-168.5 70.12,-168.5 70.12,-168.5 197.12,-168.5 197.12,-168.5 203.12,-168.5 209.12,-174.5 209.12,-180.5 209.12,-180.5 209.12,-192.5 209.12,-192.5 209.12,-198.5 203.12,-204.5 197.12,-204.5"/>
<text xml:space="preserve" text-anchor="middle" x="133.62" y="-181.45" font-family="Times,serif" font-size="14.00">My model is performant</text>
</g>
<!-- performant:s -->
<g id="performant:s" class="node">
<title>performant:s</title>
<polygon fill="#f0c27f" stroke="black" points="264.43,-114.5 199.03,-132.5 68.22,-132.5 2.82,-114.5 68.22,-96.5 199.03,-96.5 264.43,-114.5"/>
<text xml:space="preserve" text-anchor="middle" x="133.62" y="-109.45" font-family="Times,serif" font-size="14.00">Accuracy is greater than 85</text>
</g>
<!-- performant:s&#45;&gt;performant:c -->
<g id="edge1" class="edge">
<title>performant:s&#45;&gt;performant:c</title>
<path fill="none" stroke="black" d="M133.62,-132.8C133.62,-140.09 133.62,-148.77 133.62,-156.96"/>
<polygon fill="black" stroke="black" points="130.13,-156.88 133.63,-166.88 137.13,-156.88 130.13,-156.88"/>
</g>
<!-- performant:e1 -->
<g id="performant:e1" class="node">
<title>performant:e1</title>
<polygon fill="#9ecae1" stroke="black" points="111.25,-60.5 0,-60.5 0,-24.5 117.25,-24.5 117.25,-54.5 111.25,-60.5"/>
<polyline fill="none" stroke="black" points="111.25,-60.5 111.25,-54.5"/>
<polyline fill="none" stroke="black" points="117.25,-54.5 111.25,-54.5"/>
<text xml:space="preserve" text-anchor="middle" x="58.62" y="-37.45" font-family="Times,serif" font-size="14.00">Model is available</text>
</g>
<!-- performant:e1&#45;&gt;performant:s -->
<g id="edge2" class="edge">
<title>performant:e1&#45;&gt;performant:s</title>
<path fill="none" stroke="black" d="M77.16,-60.8C86.09,-69.13 96.96,-79.28 106.77,-88.43"/>
<polygon fill="black" stroke="black" points="104.23,-90.86 113.93,-95.12 109.01,-85.74 104.23,-90.86"/>
</g>
<!-- performant:e2 -->
<g id="performant:e2" class="node">
<title>performant:e2</title>
<polygon fill="#9ecae1" stroke="black" points="275.5,-60.5 135.75,-60.5 135.75,-24.5 281.5,-24.5 281.5,-54.5 275.5,-60.5"/>
<polyline fill="none" stroke="black" points="275.5,-60.5 275.5,-54.5"/>
<polyline fill="none" stroke="black" points="281.5,-54.5 275.5,-54.5"/>
<text xml:space="preserve" text-anchor="middle" x="208.62" y="-37.45" font-family="Times,serif" font-size="14.00">Test dataset is available</text>
</g>
<!-- performant:e2&#45;&gt;performant:s -->
<g id="edge3" class="edge">
<title>performant:e2&#45;&gt;performant:s</title>
<path fill="none" stroke="black" d="M190.09,-60.8C181.16,-69.13 170.29,-79.28 160.48,-88.43"/>
<polygon fill="black" stroke="black" points="158.24,-85.74 153.32,-95.12 163.02,-90.86 158.24,-85.74"/>
</g>
</g>
</svg>
