<?xml version="1.0" encoding="UTF-8" standalone="no"?>
<!DOCTYPE svg PUBLIC "-//W3C//DTD SVG 1.1//EN"
 "http://www.w3.org/Graphics/SVG/1.1/DTD/svg11.dtd">
<!-- Generated by graphviz version 14.1.5 (20260411.2331)
 -->
<!-- Title: convergence Pages: 1 -->
<svg width="379pt" height="213pt"
 viewBox="0.00 0.00 379.00 213.00" xmlns="http://www.w3.org/2000/svg" xmlns:xlink="http://www.w3.org/1999/xlink">
<g id="graph0" class="graph" transform="scale(1 1) rotate(0) translate(4 208.5)">
<title>convergence</title>
<polygon fill="white" stroke="none" points="-4,4 -4,-208.5 374.81,-208.5 374.81,4 -4,4"/>
<text xml:space="preserve" text-anchor="middle" x="185.41" y="-7.2" font-family="Times,serif" font-size="14.00">convergence</text>
<!-- convergence:converged -->
<g id="convergence:converged" class="node">
<title>convergence:converged</title>
<path fill="lightgrey" stroke="black" d="M258.31,-204.5C258.31,-204.5 107.31,-204.5 107.31,-204.5 101.31,-204.5 95.31,-198.5 95.31,-192.5 95.31,-192.5 95.31,-180.5 95.31,-180.5 95.31,-174.5 101.31,-168.5 107.31,-168.5 107.31,-168.5 258.31,-168.5 258.31,-168.5 264.31,-168.5 270.31,-174.5 270.31,-180.5 270.31,-180.5 270.31,-192.5 270.31,-192.5 270.31,-198.5 264.31,-204.5 258.31,-204.5"/>
<text xml:space="preserve" text-anchor="middle" x="182.81" y="-181.45" font-family="Times,serif" font-size="14.00">The trained model converges</text>
</g>
<!-- convergence:check_convergence -->
<g id="convergence:check_convergence" class="node">
<title>convergence:check_convergence</title>
<polygon fill="#f0c27f" stroke="black" points="365.62,-114.5 274.22,-132.5 91.41,-132.5 0,-114.5 91.41,-96.5 274.22,-96.5 365.62,-114.5"/>
<text xml:space="preserve" text-anchor="middle" x="182.81" y="-109.45" font-family="Times,serif" font-size="14.00">Assessing logs to measure convergence</text>
</g>
<!-- convergence:check_convergence&#45;&gt;convergence:converged -->
<g id="edge1" class="edge">
<title>convergence:check_convergence&#45;&gt;convergence:converged</title>
<path fill="none" stroke="black" d="M182.81,-132.8C182.81,-140.09 182.81,-148.77 182.81,-156.96"/>
<polygon fill="black" stroke="black" points="179.31,-156.88 182.81,-166.88 186.31,-156.88 179.31,-156.88"/>
</g>
<!-- convergence:e1 -->
<g id="convergence:e1" class="node">
<title>convergence:e1</title>
<polygon fill="#9ecae1" stroke="black" points="162.56,-60.5 7.06,-60.5 7.06,-24.5 168.56,-24.5 168.56,-54.5 162.56,-60.5"/>
<polyline fill="none" stroke="black" points="162.56,-60.5 162.56,-54.5"/>
<polyline fill="none" stroke="black" points="168.56,-54.5 162.56,-54.5"/>
<text xml:space="preserve" text-anchor="middle" x="87.81" y="-37.45" font-family="Times,serif" font-size="14.00">Trained model is available</text>
</g>
<!-- convergence:e1&#45;&gt;convergence:check_convergence -->
<g id="edge2" class="edge">
<title>convergence:e1&#45;&gt;convergence:check_convergence</title>
<path fill="none" stroke="black" d="M111.29,-60.8C123.06,-69.47 137.48,-80.1 150.29,-89.54"/>
<polygon fill="black" stroke="black" points="147.92,-92.14 158.05,-95.26 152.08,-86.51 147.92,-92.14"/>
</g>
<!-- convergence:e2 -->
<g id="convergence:e2" class="node">
<title>convergence:e2</title>
<polygon fill="#9ecae1" stroke="black" points="364.81,-60.5 186.81,-60.5 186.81,-24.5 370.81,-24.5 370.81,-54.5 364.81,-60.5"/>
<polyline fill="none" stroke="black" points="364.81,-60.5 364.81,-54.5"/>
<polyline fill="none" stroke="black" points="370.81,-54.5 364.81,-54.5"/>
<text xml:space="preserve" text-anchor="middle" x="278.81" y="-37.45" font-family="Times,serif" font-size="14.00">Intermediate logs are available</text>
</g>
<!-- convergence:e2&#45;&gt;convergence:check_convergence -->
<g id="edge3" class="edge">
<title>convergence:e2&#45;&gt;convergence:check_convergence</title>
<path fill="none" stroke="black" d="M255.08,-60.8C243.2,-69.47 228.62,-80.1 215.67,-89.54"/>
<polygon fill="black" stroke="black" points="213.84,-86.54 207.82,-95.26 217.97,-92.2 213.84,-86.54"/>
</g>
</g>
</svg>
