<svg width="472px" height="213px"
 viewBox="0.00 0.00 472.00 213.00" xmlns="http://www.w3.org/2000/svg" xmlns:xlink="http://www.w3.org/1999/xlink">
<g id="graph0" class="graph" transform="scale(1.0 1.0) rotate(0.0) translate(4.0 208.5)">
<polygon fill="white" stroke="none" points="-4,4 -4,-208.5 468.25,-208.5 468.25,4 -4,4"/>
<text xml:space="preserve" text-anchor="start" x="198" y="-7.2" font-family="Times,serif" font-size="14.00">convergence</text>
<!-- converged -->
<g id="convergence:converged" class="node">
<title>converged</title>
<path fill="lightgrey" stroke="black" stroke-width="1.01" d="M307.63,-204.5C307.63,-204.5 156.63,-204.5 156.63,-204.5 150.63,-204.5 144.63,-198.5 144.63,-192.5 144.63,-192.5 144.63,-180.5 144.63,-180.5 144.63,-174.5 150.63,-168.5 156.63,-168.5 156.63,-168.5 307.63,-168.5 307.63,-168.5 313.63,-168.5 319.63,-174.5 319.63,-180.5 319.63,-180.5 319.63,-192.5 319.63,-192.5 319.63,-198.5 313.63,-204.5 307.63,-204.5"/>
<text xml:space="preserve" text-anchor="start" x="152.63" y="-181.45" font-family="Times,serif" font-size="14.00">The trained model converges</text>
</g>
<!-- check_convergence -->
<g id="convergence:check_convergence" class="node">
<title>check_convergence</title>
<polygon fill="palegreen" stroke="black" stroke-width="1.01" points="464.25,-132.5 94.99,-132.5 0,-96.5 369.26,-96.5 464.25,-132.5"/>
<text xml:space="preserve" text-anchor="start" x="124.13" y="-109.45" font-family="Times,serif" font-size="14.00">Assessing logs to measure convergence</text>
</g>
<!-- check_convergence&#45;&gt;converged -->
<g id="edge1" class="edge">
<title>check_convergence&#45;&gt;converged</title>
<path fill="none" stroke="black" d="M232.13,-132.8C232.13,-140.09 232.13,-148.77 232.13,-156.96"/>
<polygon fill="black" stroke="black" points="228.63,-156.88 232.13,-166.88 235.63,-156.88 228.63,-156.88"/>
</g>
<!-- e2_conv -->
<g id="convergence:e2_conv" class="node">
<title>e2_conv</title>
<polygon fill="#a4d3ee" stroke="black" stroke-width="1.01" points="223.13,-60.5 45.13,-60.5 45.13,-24.5 229.13,-24.5 229.13,-54.5 223.13,-60.5"/>
<polyline fill="none" stroke="black" stroke-width="1.01" points="223.13,-60.5 223.13,-54.5"/>
<polyline fill="none" stroke="black" stroke-width="1.01" points="229.13,-54.5 223.13,-54.5"/>
<text xml:space="preserve" text-anchor="start" x="53.13" y="-37.45" font-family="Times,serif" font-size="14.00">Intermediate logs are available</text>
</g>
<!-- e2_conv&#45;&gt;check_convergence -->
<g id="edge2" class="edge">
<title>e2_conv&#45;&gt;check_convergence</title>
<path fill="none" stroke="black" d="M160.61,-60.8C172.37,-69.47 186.8,-80.1 199.61,-89.54"/>
<polygon fill="black" stroke="black" points="197.24,-92.14 207.37,-95.26 201.39,-86.51 197.24,-92.14"/>
</g>
<!-- e1_conv -->
<g id="convergence:e1_conv" class="node">
<title>e1_conv</title>
<polygon fill="#a4d3ee" stroke="black" stroke-width="1.01" points="402.88,-60.5 247.38,-60.5 247.38,-24.5 408.88,-24.5 408.88,-54.5 402.88,-60.5"/>
<polyline fill="none" stroke="black" stroke-width="1.01" points="402.88,-60.5 402.88,-54.5"/>
<polyline fill="none" stroke="black" stroke-width="1.01" points="408.88,-54.5 402.88,-54.5"/>
<text xml:space="preserve" text-anchor="start" x="255.38" y="-37.45" font-family="Times,serif" font-size="14.00">Trained model is available</text>
</g>
<!-- e1_conv&#45;&gt;check_convergence -->
<g id="edge3" class="edge">
<title>e1_conv&#45;&gt;check_convergence</title>
<path fill="none" stroke="black" d="M304.4,-60.8C292.51,-69.47 277.93,-80.1 264.99,-89.54"/>
<polygon fill="black" stroke="black" points="263.16,-86.54 257.14,-95.26 267.28,-92.2 263.16,-86.54"/>
</g>
</g>
</svg>
