<svg width="718px" height="501px"
 viewBox="0.00 0.00 718.00 501.00" xmlns="http://www.w3.org/2000/svg" xmlns:xlink="http://www.w3.org/1999/xlink">
<g id="graph0" class="graph" transform="scale(1.0 1.0) rotate(0.0) translate(4.0 496.5)">
<polygon fill="white" stroke="none" points="-4,4 -4,-496.5 713.69,-496.5 713.69,4 -4,4"/>
<text xml:space="preserve" text-anchor="start" x="342.47" y="-7.2" font-family="Times,serif" font-size="14.00">final</text>
<!-- converged -->
<g id="final:converged" class="node">
<title>converged</title>
<polygon fill="none" stroke="dodgerblue" stroke-width="1.01" points="464.1,-204.5 289.1,-204.5 289.1,-168.5 464.1,-168.5 464.1,-204.5"/>
<text xml:space="preserve" text-anchor="start" x="297.1" y="-181.45" font-family="Times,serif" font-size="14.00">The trained model converges</text>
</g>
<!-- s -->
<g id="final:s" class="node">
<title>s</title>
<polygon fill="palegreen" stroke="black" stroke-width="1.01" points="709.69,-276.5 445.48,-276.5 377.51,-240.5 641.72,-240.5 709.69,-276.5"/>
<text xml:space="preserve" text-anchor="start" x="468.6" y="-253.45" font-family="Times,serif" font-size="14.00">Accuracy is greater than 80</text>
</g>
<!-- converged&#45;&gt;s -->
<g id="edge2" class="edge">
<title>converged&#45;&gt;s</title>
<path fill="none" stroke="black" d="M418.31,-204.98C440.43,-214.25 467.81,-225.73 491.34,-235.59"/>
<polygon fill="black" stroke="black" points="489.87,-238.77 500.44,-239.41 492.57,-232.32 489.87,-238.77"/>
</g>
<!-- s_fair -->
<g id="final:s_fair" class="node">
<title>s_fair</title>
<polygon fill="palegreen" stroke="black" stroke-width="1.01" points="359.2,-276.5 73.5,-276.5 0,-240.5 285.7,-240.5 359.2,-276.5"/>
<text xml:space="preserve" text-anchor="start" x="97.85" y="-253.45" font-family="Times,serif" font-size="14.00">Assess counterfactual fairness</text>
</g>
<!-- converged&#45;&gt;s_fair -->
<g id="edge1" class="edge">
<title>converged&#45;&gt;s_fair</title>
<path fill="none" stroke="black" d="M327.39,-204.98C300.72,-214.46 267.54,-226.25 239.38,-236.26"/>
<polygon fill="black" stroke="black" points="238.53,-232.84 230.28,-239.49 240.88,-239.44 238.53,-232.84"/>
</g>
<!-- check_convergence -->
<g id="final:check_convergence" class="node">
<title>check_convergence</title>
<polygon fill="palegreen" stroke="black" stroke-width="1.01" points="608.72,-132.5 239.46,-132.5 144.47,-96.5 513.73,-96.5 608.72,-132.5"/>
<text xml:space="preserve" text-anchor="start" x="268.6" y="-109.45" font-family="Times,serif" font-size="14.00">Assessing logs to measure convergence</text>
</g>
<!-- check_convergence&#45;&gt;converged -->
<g id="edge3" class="edge">
<title>check_convergence&#45;&gt;converged</title>
<path fill="none" stroke="black" d="M376.6,-132.8C376.6,-140.09 376.6,-148.77 376.6,-156.96"/>
<polygon fill="black" stroke="black" points="373.1,-156.88 376.6,-166.88 380.1,-156.88 373.1,-156.88"/>
</g>
<!-- c -->
<g id="final:c" class="node">
<title>c</title>
<path fill="lightgrey" stroke="black" stroke-width="1.01" d="M413.47,-492.5C413.47,-492.5 309.72,-492.5 309.72,-492.5 303.72,-492.5 297.72,-486.5 297.72,-480.5 297.72,-480.5 297.72,-468.5 297.72,-468.5 297.72,-462.5 303.72,-456.5 309.72,-456.5 309.72,-456.5 413.47,-456.5 413.47,-456.5 419.47,-456.5 425.47,-462.5 425.47,-468.5 425.47,-468.5 425.47,-480.5 425.47,-480.5 425.47,-486.5 419.47,-492.5 413.47,-492.5"/>
<text xml:space="preserve" text-anchor="start" x="305.72" y="-469.45" font-family="Times,serif" font-size="14.00">Model is deployable</text>
</g>
<!-- AND -->
<g id="final:AND" class="node">
<title>AND</title>
<polygon fill="palegreen" stroke="black" stroke-width="1.01" points="499.92,-420.5 279.88,-420.5 223.27,-384.5 443.32,-384.5 499.92,-420.5"/>
<text xml:space="preserve" text-anchor="start" x="300.47" y="-397.45" font-family="Times,serif" font-size="14.00">All conditions are met</text>
</g>
<!-- AND&#45;&gt;c -->
<g id="edge4" class="edge">
<title>AND&#45;&gt;c</title>
<path fill="none" stroke="black" d="M361.6,-420.8C361.6,-428.09 361.6,-436.77 361.6,-444.96"/>
<polygon fill="black" stroke="black" points="358.1,-444.88 361.6,-454.88 365.1,-444.88 358.1,-444.88"/>
</g>
<!-- c_perf -->
<g id="final:c_perf" class="node">
<title>c_perf</title>
<polygon fill="none" stroke="dodgerblue" stroke-width="1.01" points="565.1,-348.5 414.1,-348.5 414.1,-312.5 565.1,-312.5 565.1,-348.5"/>
<text xml:space="preserve" text-anchor="start" x="422.1" y="-325.45" font-family="Times,serif" font-size="14.00">My model is performant</text>
</g>
<!-- s&#45;&gt;c_perf -->
<g id="edge5" class="edge">
<title>s&#45;&gt;c_perf</title>
<path fill="none" stroke="black" d="M530.25,-276.8C524.04,-284.86 516.52,-294.61 509.64,-303.52"/>
<polygon fill="black" stroke="black" points="507.05,-301.14 503.72,-311.2 512.6,-305.42 507.05,-301.14"/>
</g>
<!-- e2 -->
<g id="final:e2" class="node">
<title>e2</title>
<polygon fill="#a4d3ee" stroke="black" stroke-width="1.01" points="621.47,-204.5 481.72,-204.5 481.72,-168.5 627.47,-168.5 627.47,-198.5 621.47,-204.5"/>
<polyline fill="none" stroke="black" stroke-width="1.01" points="621.47,-204.5 621.47,-198.5"/>
<polyline fill="none" stroke="black" stroke-width="1.01" points="627.47,-198.5 621.47,-198.5"/>
<text xml:space="preserve" text-anchor="start" x="489.72" y="-181.45" font-family="Times,serif" font-size="14.00">Test dataset is available</text>
</g>
<!-- e2&#45;&gt;s -->
<g id="edge6" class="edge">
<title>e2&#45;&gt;s</title>
<path fill="none" stroke="black" d="M551.88,-204.8C550.72,-212.18 549.34,-220.98 548.04,-229.25"/>
<polygon fill="black" stroke="black" points="544.62,-228.48 546.52,-238.9 551.53,-229.57 544.62,-228.48"/>
</g>
<!-- e2_fair -->
<g id="final:e2_fair" class="node">
<title>e2_fair</title>
<polygon fill="#a4d3ee" stroke="black" stroke-width="1.01" points="264.97,-204.5 68.22,-204.5 68.22,-168.5 270.97,-168.5 270.97,-198.5 264.97,-204.5"/>
<polyline fill="none" stroke="black" stroke-width="1.01" points="264.97,-204.5 264.97,-198.5"/>
<polyline fill="none" stroke="black" stroke-width="1.01" points="270.97,-198.5 264.97,-198.5"/>
<text xml:space="preserve" text-anchor="start" x="76.22" y="-181.45" font-family="Times,serif" font-size="14.00">Counterfactual dataset is available</text>
</g>
<!-- e2_fair&#45;&gt;s_fair -->
<g id="edge7" class="edge">
<title>e2_fair&#45;&gt;s_fair</title>
<path fill="none" stroke="black" d="M172.07,-204.8C173.12,-212.18 174.38,-220.98 175.56,-229.25"/>
<polygon fill="black" stroke="black" points="172.06,-229.49 176.94,-238.9 178.99,-228.5 172.06,-229.49"/>
</g>
<!-- c_fair -->
<g id="final:c_fair" class="node">
<title>c_fair</title>
<polygon fill="none" stroke="dodgerblue" stroke-width="1.01" points="342.1,-348.5 233.1,-348.5 233.1,-312.5 342.1,-312.5 342.1,-348.5"/>
<text xml:space="preserve" text-anchor="start" x="241.1" y="-325.45" font-family="Times,serif" font-size="14.00">My model is fair</text>
</g>
<!-- c_fair&#45;&gt;AND -->
<g id="edge8" class="edge">
<title>c_fair&#45;&gt;AND</title>
<path fill="none" stroke="black" d="M305.89,-348.8C314.7,-357.13 325.42,-367.28 335.1,-376.43"/>
<polygon fill="black" stroke="black" points="332.49,-378.78 342.16,-383.11 337.3,-373.7 332.49,-378.78"/>
</g>
<!-- c_perf&#45;&gt;AND -->
<g id="edge9" class="edge">
<title>c_perf&#45;&gt;AND</title>
<path fill="none" stroke="black" d="M457.63,-348.98C441.29,-357.92 421.19,-368.91 403.61,-378.52"/>
<polygon fill="black" stroke="black" points="402.03,-375.4 394.93,-383.27 405.38,-381.54 402.03,-375.4"/>
</g>
<!-- s_fair&#45;&gt;c_fair -->
<g id="edge10" class="edge">
<title>s_fair&#45;&gt;c_fair</title>
<path fill="none" stroke="black" d="M206.57,-276.98C220.1,-285.75 236.68,-296.5 251.31,-305.98"/>
<polygon fill="black" stroke="black" points="249.03,-308.67 259.32,-311.17 252.83,-302.8 249.03,-308.67"/>
</g>
<!-- e2_conv -->
<g id="final:e2_conv" class="node">
<title>e2_conv</title>
<polygon fill="#a4d3ee" stroke="black" stroke-width="1.01" points="367.6,-60.5 189.6,-60.5 189.6,-24.5 373.6,-24.5 373.6,-54.5 367.6,-60.5"/>
<polyline fill="none" stroke="black" stroke-width="1.01" points="367.6,-60.5 367.6,-54.5"/>
<polyline fill="none" stroke="black" stroke-width="1.01" points="373.6,-54.5 367.6,-54.5"/>
<text xml:space="preserve" text-anchor="start" x="197.6" y="-37.45" font-family="Times,serif" font-size="14.00">Intermediate logs are available</text>
</g>
<!-- e2_conv&#45;&gt;check_convergence -->
<g id="edge11" class="edge">
<title>e2_conv&#45;&gt;check_convergence</title>
<path fill="none" stroke="black" d="M305.08,-60.8C316.84,-69.47 331.27,-80.1 344.08,-89.54"/>
<polygon fill="black" stroke="black" points="341.71,-92.14 351.84,-95.26 345.86,-86.51 341.71,-92.14"/>
</g>
<!-- e1_conv -->
<g id="final:e1_conv" class="node">
<title>e1_conv</title>
<polygon fill="#a4d3ee" stroke="black" stroke-width="1.01" points="547.35,-60.5 391.85,-60.5 391.85,-24.5 553.35,-24.5 553.35,-54.5 547.35,-60.5"/>
<polyline fill="none" stroke="black" stroke-width="1.01" points="547.35,-60.5 547.35,-54.5"/>
<polyline fill="none" stroke="black" stroke-width="1.01" points="553.35,-54.5 547.35,-54.5"/>
<text xml:space="preserve" text-anchor="start" x="399.85" y="-37.45" font-family="Times,serif" font-size="14.00">Trained model is available</text>
</g>
<!-- e1_conv&#45;&gt;check_convergence -->
<g id="edge12" class="edge">
<title>e1_conv&#45;&gt;check_convergence</title>
<path fill="none" stroke="black" d="M448.87,-60.8C436.98,-69.47 422.4,-80.1 409.46,-89.54"/>
<polygon fill="black" stroke="black" points="407.63,-86.54 401.61,-95.26 411.75,-92.2 407.63,-86.54"/>
</g>
</g>
</svg>
