<?xml version="1.0" encoding="UTF-8" standalone="no"?>
<!DOCTYPE svg PUBLIC "-//W3C//DTD SVG 1.1//EN"
 "http://www.w3.org/Graphics/SVG/1.1/DTD/svg11.dtd">
<!-- Generated by graphviz version 14.1.5 (20260411.2331)
 -->
<!-- Pages: 1 -->
<svg width="567pt" height="476pt"
 viewBox="0.00 0.00 567.00 476.00" xmlns="http://www.w3.org/2000/svg" xmlns:xlink="http://www.w3.org/1999/xlink">
<g id="graph0" class="graph" transform="scale(1 1) rotate(0) translate(4 472)">
<polygon fill="white" stroke="none" points="-4,4 -4,-472 563.25,-472 563.25,4 -4,4"/>
<!-- final_deployable_assembleConclusion -->
<g id="node1" class="node">
<title>final_deployable_assembleConclusion</title>
<path fill="lightgrey" stroke="black" d="M316.75,-468C316.75,-468 213,-468 213,-468 207,-468 201,-462 201,-456 201,-456 201,-444 201,-444 201,-438 207,-432 213,-432 213,-432 316.75,-432 316.75,-432 322.75,-432 328.75,-438 328.75,-444 328.75,-444 328.75,-456 328.75,-456 328.75,-462 322.75,-468 316.75,-468"/>
<text xml:space="preserve" text-anchor="middle" x="264.88" y="-444.95" font-family="Times,serif" font-size="14.00">Model is deployable</text>
</g>
<!-- final_deployable_fair_c -->
<g id="node2" class="node">
<title>final_deployable_fair_c</title>
<polygon fill="none" stroke="#0072b2" points="421.38,-324 312.38,-324 312.38,-288 421.38,-288 421.38,-324"/>
<text xml:space="preserve" text-anchor="middle" x="366.88" y="-300.95" font-family="Times,serif" font-size="14.00">My model is fair</text>
</g>
<!-- final_deployable_assembleStrategy -->
<g id="node9" class="node">
<title>final_deployable_assembleStrategy</title>
<polygon fill="#f0c27f" stroke="black" points="373.81,-378 319.34,-396 210.41,-396 155.94,-378 210.41,-360 319.34,-360 373.81,-378"/>
<text xml:space="preserve" text-anchor="middle" x="264.88" y="-372.95" font-family="Times,serif" font-size="14.00">All conditions are met</text>
</g>
<!-- final_deployable_fair_c&#45;&gt;final_deployable_assembleStrategy -->
<g id="edge1" class="edge">
<title>final_deployable_fair_c&#45;&gt;final_deployable_assembleStrategy</title>
<path fill="none" stroke="black" d="M341.4,-324.48C328.65,-333.24 313.02,-343.96 299.23,-353.42"/>
<polygon fill="black" stroke="black" points="297.54,-350.34 291.27,-358.88 301.5,-356.11 297.54,-350.34"/>
</g>
<!-- final_deployable_fair_s -->
<g id="node3" class="node">
<title>final_deployable_fair_s</title>
<polygon fill="#f0c27f" stroke="black" points="506.18,-234 450.53,-252 339.22,-252 283.57,-234 339.22,-216 450.53,-216 506.18,-234"/>
<text xml:space="preserve" text-anchor="middle" x="394.88" y="-228.95" font-family="Times,serif" font-size="14.00">Flip&#45;rate is below 10%</text>
</g>
<!-- final_deployable_fair_s&#45;&gt;final_deployable_fair_c -->
<g id="edge2" class="edge">
<title>final_deployable_fair_s&#45;&gt;final_deployable_fair_c</title>
<path fill="none" stroke="black" d="M387.95,-252.3C384.94,-259.85 381.32,-268.88 377.95,-277.32"/>
<polygon fill="black" stroke="black" points="374.74,-275.91 374.28,-286.49 381.24,-278.51 374.74,-275.91"/>
</g>
<!-- final_hook -->
<g id="node4" class="node">
<title>final_hook</title>
<polygon fill="none" stroke="#0072b2" points="338.38,-180 163.38,-180 163.38,-144 338.38,-144 338.38,-180"/>
<text xml:space="preserve" text-anchor="middle" x="250.88" y="-156.95" font-family="Times,serif" font-size="14.00">The trained model converges</text>
</g>
<!-- final_hook&#45;&gt;final_deployable_fair_s -->
<g id="edge3" class="edge">
<title>final_hook&#45;&gt;final_deployable_fair_s</title>
<path fill="none" stroke="black" d="M286.84,-180.48C305.71,-189.66 329.03,-200.99 349.17,-210.78"/>
<polygon fill="black" stroke="black" points="347.48,-213.85 358.01,-215.08 350.54,-207.56 347.48,-213.85"/>
</g>
<!-- final_deployable_performant_s -->
<g id="node7" class="node">
<title>final_deployable_performant_s</title>
<polygon fill="#f0c27f" stroke="black" points="265.68,-234 200.28,-252 69.47,-252 4.07,-234 69.47,-216 200.28,-216 265.68,-234"/>
<text xml:space="preserve" text-anchor="middle" x="134.88" y="-228.95" font-family="Times,serif" font-size="14.00">Accuracy is greater than 80</text>
</g>
<!-- final_hook&#45;&gt;final_deployable_performant_s -->
<g id="edge4" class="edge">
<title>final_hook&#45;&gt;final_deployable_performant_s</title>
<path fill="none" stroke="black" d="M221.9,-180.48C207.12,-189.4 188.95,-200.37 173.04,-209.97"/>
<polygon fill="black" stroke="black" points="171.53,-206.79 164.77,-214.96 175.14,-212.79 171.53,-206.79"/>
</g>
<!-- final_deployable_fair_e2 -->
<g id="node5" class="node">
<title>final_deployable_fair_e2</title>
<polygon fill="#9ecae1" stroke="black" points="553.25,-180 356.5,-180 356.5,-144 559.25,-144 559.25,-174 553.25,-180"/>
<polyline fill="none" stroke="black" points="553.25,-180 553.25,-174"/>
<polyline fill="none" stroke="black" points="559.25,-174 553.25,-174"/>
<text xml:space="preserve" text-anchor="middle" x="457.88" y="-156.95" font-family="Times,serif" font-size="14.00">Counterfactual dataset is available</text>
</g>
<!-- final_deployable_fair_e2&#45;&gt;final_deployable_fair_s -->
<g id="edge5" class="edge">
<title>final_deployable_fair_e2&#45;&gt;final_deployable_fair_s</title>
<path fill="none" stroke="black" d="M442.3,-180.3C434.9,-188.53 425.91,-198.52 417.75,-207.58"/>
<polygon fill="black" stroke="black" points="415.37,-205 411.28,-214.77 420.57,-209.68 415.37,-205"/>
</g>
<!-- final_deployable_performant_c -->
<g id="node6" class="node">
<title>final_deployable_performant_c</title>
<polygon fill="none" stroke="#0072b2" points="266.38,-324 115.38,-324 115.38,-288 266.38,-288 266.38,-324"/>
<text xml:space="preserve" text-anchor="middle" x="190.88" y="-300.95" font-family="Times,serif" font-size="14.00">My model is performant</text>
</g>
<!-- final_deployable_performant_c&#45;&gt;final_deployable_assembleStrategy -->
<g id="edge6" class="edge">
<title>final_deployable_performant_c&#45;&gt;final_deployable_assembleStrategy</title>
<path fill="none" stroke="black" d="M209.17,-324.3C217.97,-332.63 228.7,-342.78 238.37,-351.93"/>
<polygon fill="black" stroke="black" points="235.77,-354.28 245.44,-358.61 240.58,-349.2 235.77,-354.28"/>
</g>
<!-- final_deployable_performant_s&#45;&gt;final_deployable_performant_c -->
<g id="edge7" class="edge">
<title>final_deployable_performant_s&#45;&gt;final_deployable_performant_c</title>
<path fill="none" stroke="black" d="M148.72,-252.3C155.16,-260.36 162.96,-270.11 170.09,-279.02"/>
<polygon fill="black" stroke="black" points="167.27,-281.09 176.25,-286.71 172.73,-276.72 167.27,-281.09"/>
</g>
<!-- final_deployable_performant_e2 -->
<g id="node8" class="node">
<title>final_deployable_performant_e2</title>
<polygon fill="#9ecae1" stroke="black" points="139.75,-180 0,-180 0,-144 145.75,-144 145.75,-174 139.75,-180"/>
<polyline fill="none" stroke="black" points="139.75,-180 139.75,-174"/>
<polyline fill="none" stroke="black" points="145.75,-174 139.75,-174"/>
<text xml:space="preserve" text-anchor="middle" x="72.88" y="-156.95" font-family="Times,serif" font-size="14.00">Test dataset is available</text>
</g>
<!-- final_deployable_performant_e2&#45;&gt;final_deployable_performant_s -->
<g id="edge8" class="edge">
<title>final_deployable_performant_e2&#45;&gt;final_deployable_performant_s</title>
<path fill="none" stroke="black" d="M88.2,-180.3C95.41,-188.44 104.15,-198.31 112.11,-207.3"/>
<polygon fill="black" stroke="black" points="109.47,-209.6 118.72,-214.76 114.71,-204.96 109.47,-209.6"/>
</g>
<!-- final_deployable_assembleStrategy&#45;&gt;final_deployable_assembleConclusion -->
<g id="edge9" class="edge">
<title>final_deployable_assembleStrategy&#45;&gt;final_deployable_assembleConclusion</title>
<path fill="none" stroke="black" d="M264.88,-396.3C264.88,-403.59 264.88,-412.27 264.88,-420.46"/>
<polygon fill="black" stroke="black" points="261.38,-420.38 264.88,-430.38 268.38,-420.38 261.38,-420.38"/>
</g>
<!-- final_convergence_check_convergence -->
<g id="node10" class="node">
<title>final_convergence_check_convergence</title>
<polygon fill="#f0c27f" stroke="black" points="433.69,-90 342.28,-108 159.47,-108 68.06,-90 159.47,-72 342.28,-72 433.69,-90"/>
<text xml:space="preserve" text-anchor="middle" x="250.88" y="-84.95" font-family="Times,serif" font-size="14.00">Assessing logs to measure convergence</text>
</g>
<!-- final_convergence_check_convergence&#45;&gt;final_hook -->
<g id="edge10" class="edge">
<title>final_convergence_check_convergence&#45;&gt;final_hook</title>
<path fill="none" stroke="black" d="M250.88,-108.3C250.88,-115.59 250.88,-124.27 250.88,-132.46"/>
<polygon fill="black" stroke="black" points="247.38,-132.38 250.88,-142.38 254.38,-132.38 247.38,-132.38"/>
</g>
<!-- final_convergence_e1 -->
<g id="node11" class="node">
<title>final_convergence_e1</title>
<polygon fill="#9ecae1" stroke="black" points="230.62,-36 75.12,-36 75.12,0 236.62,0 236.62,-30 230.62,-36"/>
<polyline fill="none" stroke="black" points="230.62,-36 230.62,-30"/>
<polyline fill="none" stroke="black" points="236.62,-30 230.62,-30"/>
<text xml:space="preserve" text-anchor="middle" x="155.88" y="-12.95" font-family="Times,serif" font-size="14.00">Trained model is available</text>
</g>
<!-- final_convergence_e1&#45;&gt;final_convergence_check_convergence -->
<g id="edge11" class="edge">
<title>final_convergence_e1&#45;&gt;final_convergence_check_convergence</title>
<path fill="none" stroke="black" d="M179.36,-36.3C191.12,-44.97 205.55,-55.6 218.35,-65.04"/>
<polygon fill="black" stroke="black" points="215.99,-67.64 226.11,-70.76 220.14,-62.01 215.99,-67.64"/>
</g>
<!-- final_convergence_e2 -->
<g id="node12" class="node">
<title>final_convergence_e2</title>
<polygon fill="#9ecae1" stroke="black" points="432.88,-36 254.88,-36 254.88,0 438.88,0 438.88,-30 432.88,-36"/>
<polyline fill="none" stroke="black" points="432.88,-36 432.88,-30"/>
<polyline fill="none" stroke="black" points="438.88,-30 432.88,-30"/>
<text xml:space="preserve" text-anchor="middle" x="346.88" y="-12.95" font-family="Times,serif" font-size="14.00">Intermediate logs are available</text>
</g>
<!-- final_convergence_e2&#45;&gt;final_convergence_check_convergence -->
<g id="edge12" class="edge">
<title>final_convergence_e2&#45;&gt;final_convergence_check_convergence</title>
<path fill="none" stroke="black" d="M323.14,-36.3C311.26,-44.97 296.68,-55.6 283.74,-65.04"/>
<polygon fill="black" stroke="black" points="281.91,-62.04 275.89,-70.76 286.03,-67.7 281.91,-62.04"/>
</g>
</g>
</svg>
