<?xml version="1.0" encoding="UTF-8" standalone="no"?>
<!DOCTYPE svg PUBLIC "-//W3C//DTD SVG 1.1//EN"
 "http://www.w3.org/Graphics/SVG/1.1/DTD/svg11.dtd">
<!-- Generated by graphviz version 14.1.5 (20260411.2331)
 -->
<!-- Title: final Pages: 1 -->
<svg width="567pt" height="501pt"
 viewBox="0.00 0.00 567.00 501.00" xmlns="http://www.w3.org/2000/svg" xmlns:xlink="http://www.w3.org/1999/xlink">
<g id="graph0" class="graph" transform="scale(1 1) rotate(0) translate(4 496.5)">
<title>final</title>
<polygon fill="white" stroke="none" points="-4,4 -4,-496.5 563.25,-496.5 563.25,4 -4,4"/>
<text xml:space="preserve" text-anchor="middle" x="279.62" y="-7.2" font-family="Times,serif" font-size="14.00">final</text>
<!-- final:deployable:assembleConclusion -->
<g id="final:deployable:assembleConclusion" class="node">
<title>final:deployable:assembleConclusion</title>
<path fill="lightgrey" stroke="black" d="M316.75,-492.5C316.75,-492.5 213,-492.5 213,-492.5 207,-492.5 201,-486.5 201,-480.5 201,-480.5 201,-468.5 201,-468.5 201,-462.5 207,-456.5 213,-456.5 213,-456.5 316.75,-456.5 316.75,-456.5 322.75,-456.5 328.75,-462.5 328.75,-468.5 328.75,-468.5 328.75,-480.5 328.75,-480.5 328.75,-486.5 322.75,-492.5 316.75,-492.5"/>
<text xml:space="preserve" text-anchor="middle" x="264.88" y="-469.45" font-family="Times,serif" font-size="14.00">Model is deployable</text>
</g>
<!-- final:deployable:fair:c -->
<g id="final:deployable:fair:c" class="node">
<title>final:deployable:fair:c</title>
<polygon fill="none" stroke="#0072b2" points="421.38,-348.5 312.38,-348.5 312.38,-312.5 421.38,-312.5 421.38,-348.5"/>
<text xml:space="preserve" text-anchor="middle" x="366.88" y="-325.45" font-family="Times,serif" font-size="14.00">My model is fair</text>
</g>
<!-- final:deployable:assembleStrategy -->
<g id="final:deployable:assembleStrategy" class="node">
<title>final:deployable:assembleStrategy</title>
<polygon fill="#f0c27f" stroke="black" points="373.81,-402.5 319.34,-420.5 210.41,-420.5 155.94,-402.5 210.41,-384.5 319.34,-384.5 373.81,-402.5"/>
<text xml:space="preserve" text-anchor="middle" x="264.88" y="-397.45" font-family="Times,serif" font-size="14.00">All conditions are met</text>
</g>
<!-- final:deployable:fair:c&#45;&gt;final:deployable:assembleStrategy -->
<g id="edge9" class="edge">
<title>final:deployable:fair:c&#45;&gt;final:deployable:assembleStrategy</title>
<path fill="none" stroke="black" d="M341.4,-348.98C328.65,-357.74 313.02,-368.46 299.23,-377.92"/>
<polygon fill="black" stroke="black" points="297.54,-374.84 291.27,-383.38 301.5,-380.61 297.54,-374.84"/>
</g>
<!-- final:deployable:fair:s -->
<g id="final:deployable:fair:s" class="node">
<title>final:deployable:fair:s</title>
<polygon fill="#f0c27f" stroke="black" points="506.18,-258.5 450.53,-276.5 339.22,-276.5 283.57,-258.5 339.22,-240.5 450.53,-240.5 506.18,-258.5"/>
<text xml:space="preserve" text-anchor="middle" x="394.88" y="-253.45" font-family="Times,serif" font-size="14.00">Flip&#45;rate is below 10%</text>
</g>
<!-- final:deployable:fair:s&#45;&gt;final:deployable:fair:c -->
<g id="edge2" class="edge">
<title>final:deployable:fair:s&#45;&gt;final:deployable:fair:c</title>
<path fill="none" stroke="black" d="M387.95,-276.8C384.94,-284.35 381.32,-293.38 377.95,-301.82"/>
<polygon fill="black" stroke="black" points="374.74,-300.41 374.28,-310.99 381.24,-303.01 374.74,-300.41"/>
</g>
<!-- final:hook -->
<g id="final:hook" class="node">
<title>final:hook</title>
<polygon fill="none" stroke="#0072b2" points="338.38,-204.5 163.38,-204.5 163.38,-168.5 338.38,-168.5 338.38,-204.5"/>
<text xml:space="preserve" text-anchor="middle" x="250.88" y="-181.45" font-family="Times,serif" font-size="14.00">The trained model converges</text>
</g>
<!-- final:hook&#45;&gt;final:deployable:fair:s -->
<g id="edge5" class="edge">
<title>final:hook&#45;&gt;final:deployable:fair:s</title>
<path fill="none" stroke="black" d="M286.84,-204.98C305.71,-214.16 329.03,-225.49 349.17,-235.28"/>
<polygon fill="black" stroke="black" points="347.48,-238.35 358.01,-239.58 350.54,-232.06 347.48,-238.35"/>
</g>
<!-- final:deployable:performant:s -->
<g id="final:deployable:performant:s" class="node">
<title>final:deployable:performant:s</title>
<polygon fill="#f0c27f" stroke="black" points="265.68,-258.5 200.28,-276.5 69.47,-276.5 4.07,-258.5 69.47,-240.5 200.28,-240.5 265.68,-258.5"/>
<text xml:space="preserve" text-anchor="middle" x="134.88" y="-253.45" font-family="Times,serif" font-size="14.00">Accuracy is greater than 80</text>
</g>
<!-- final:hook&#45;&gt;final:deployable:performant:s -->
<g id="edge7" class="edge">
<title>final:hook&#45;&gt;final:deployable:performant:s</title>
<path fill="none" stroke="black" d="M221.9,-204.98C207.12,-213.9 188.95,-224.87 173.04,-234.47"/>
<polygon fill="black" stroke="black" points="171.53,-231.29 164.77,-239.46 175.14,-237.29 171.53,-231.29"/>
</g>
<!-- final:deployable:fair:e2 -->
<g id="final:deployable:fair:e2" class="node">
<title>final:deployable:fair:e2</title>
<polygon fill="#9ecae1" stroke="black" points="553.25,-204.5 356.5,-204.5 356.5,-168.5 559.25,-168.5 559.25,-198.5 553.25,-204.5"/>
<polyline fill="none" stroke="black" points="553.25,-204.5 553.25,-198.5"/>
<polyline fill="none" stroke="black" points="559.25,-198.5 553.25,-198.5"/>
<text xml:space="preserve" text-anchor="middle" x="457.88" y="-181.45" font-family="Times,serif" font-size="14.00">Counterfactual dataset is available</text>
</g>
<!-- final:deployable:fair:e2&#45;&gt;final:deployable:fair:s -->
<g id="edge6" class="edge">
<title>final:deployable:fair:e2&#45;&gt;final:deployable:fair:s</title>
<path fill="none" stroke="black" d="M442.3,-204.8C434.9,-213.03 425.91,-223.02 417.75,-232.08"/>
<polygon fill="black" stroke="black" points="415.37,-229.5 411.28,-239.27 420.57,-234.18 415.37,-229.5"/>
</g>
<!-- final:deployable:performant:c -->
<g id="final:deployable:performant:c" class="node">
<title>final:deployable:performant:c</title>
<polygon fill="none" stroke="#0072b2" points="266.38,-348.5 115.38,-348.5 115.38,-312.5 266.38,-312.5 266.38,-348.5"/>
<text xml:space="preserve" text-anchor="middle" x="190.88" y="-325.45" font-family="Times,serif" font-size="14.00">My model is performant</text>
</g>
<!-- final:deployable:performant:c&#45;&gt;final:deployable:assembleStrategy -->
<g id="edge10" class="edge">
<title>final:deployable:performant:c&#45;&gt;final:deployable:assembleStrategy</title>
<path fill="none" stroke="black" d="M209.17,-348.8C217.97,-357.13 228.7,-367.28 238.37,-376.43"/>
<polygon fill="black" stroke="black" points="235.77,-378.78 245.44,-383.11 240.58,-373.7 235.77,-378.78"/>
</g>
<!-- final:deployable:performant:s&#45;&gt;final:deployable:performant:c -->
<g id="edge4" class="edge">
<title>final:deployable:performant:s&#45;&gt;final:deployable:performant:c</title>
<path fill="none" stroke="black" d="M148.72,-276.8C155.16,-284.86 162.96,-294.61 170.09,-303.52"/>
<polygon fill="black" stroke="black" points="167.27,-305.59 176.25,-311.21 172.73,-301.22 167.27,-305.59"/>
</g>
<!-- final:deployable:performant:e2 -->
<g id="final:deployable:performant:e2" class="node">
<title>final:deployable:performant:e2</title>
<polygon fill="#9ecae1" stroke="black" points="139.75,-204.5 0,-204.5 0,-168.5 145.75,-168.5 145.75,-198.5 139.75,-204.5"/>
<polyline fill="none" stroke="black" points="139.75,-204.5 139.75,-198.5"/>
<polyline fill="none" stroke="black" points="145.75,-198.5 139.75,-198.5"/>
<text xml:space="preserve" text-anchor="middle" x="72.88" y="-181.45" font-family="Times,serif" font-size="14.00">Test dataset is available</text>
</g>
<!-- final:deployable:performant:e2&#45;&gt;final:deployable:performant:s -->
<g id="edge8" class="edge">
<title>final:deployable:performant:e2&#45;&gt;final:deployable:performant:s</title>
<path fill="none" stroke="black" d="M88.2,-204.8C95.41,-212.94 104.15,-222.81 112.11,-231.8"/>
<polygon fill="black" stroke="black" points="109.47,-234.1 118.72,-239.26 114.71,-229.46 109.47,-234.1"/>
</g>
<!-- final:deployable:assembleStrategy&#45;&gt;final:deployable:assembleConclusion -->
<g id="edge1" class="edge">
<title>final:deployable:assembleStrategy&#45;&gt;final:deployable:assembleConclusion</title>
<path fill="none" stroke="black" d="M264.88,-420.8C264.88,-428.09 264.88,-436.77 264.88,-444.96"/>
<polygon fill="black" stroke="black" points="261.38,-444.88 264.88,-454.88 268.38,-444.88 261.38,-444.88"/>
</g>
<!-- final:convergence:check_convergence -->
<g id="final:convergence:check_convergence" class="node">
<title>final:convergence:check_convergence</title>
<polygon fill="#f0c27f" stroke="black" points="433.69,-114.5 342.28,-132.5 159.47,-132.5 68.06,-114.5 159.47,-96.5 342.28,-96.5 433.69,-114.5"/>
<text xml:space="preserve" text-anchor="middle" x="250.88" y="-109.45" font-family="Times,serif" font-size="14.00">Assessing logs to measure convergence</text>
</g>
<!-- final:convergence:check_convergence&#45;&gt;final:hook -->
<g id="edge3" class="edge">
<title>final:convergence:check_convergence&#45;&gt;final:hook</title>
<path fill="none" stroke="black" d="M250.88,-132.8C250.88,-140.09 250.88,-148.77 250.88,-156.96"/>
<polygon fill="black" stroke="black" points="247.38,-156.88 250.88,-166.88 254.38,-156.88 247.38,-156.88"/>
</g>
<!-- final:convergence:e1 -->
<g id="final:convergence:e1" class="node">
<title>final:convergence:e1</title>
<polygon fill="#9ecae1" stroke="black" points="230.62,-60.5 75.12,-60.5 75.12,-24.5 236.62,-24.5 236.62,-54.5 230.62,-60.5"/>
<polyline fill="none" stroke="black" points="230.62,-60.5 230.62,-54.5"/>
<polyline fill="none" stroke="black" points="236.62,-54.5 230.62,-54.5"/>
<text xml:space="preserve" text-anchor="middle" x="155.88" y="-37.45" font-family="Times,serif" font-size="14.00">Trained model is available</text>
</g>
<!-- final:convergence:e1&#45;&gt;final:convergence:check_convergence -->
<g id="edge11" class="edge">
<title>final:convergence:e1&#45;&gt;final:convergence:check_convergence</title>
<path fill="none" stroke="black" d="M179.36,-60.8C191.12,-69.47 205.55,-80.1 218.35,-89.54"/>
<polygon fill="black" stroke="black" points="215.99,-92.14 226.11,-95.26 220.14,-86.51 215.99,-92.14"/>
</g>
<!-- final:convergence:e2 -->
<g id="final:convergence:e2" class="node">
<title>final:convergence:e2</title>
<polygon fill="#9ecae1" stroke="black" points="432.88,-60.5 254.88,-60.5 254.88,-24.5 438.88,-24.5 438.88,-54.5 432.88,-60.5"/>
<polyline fill="none" stroke="black" points="432.88,-60.5 432.88,-54.5"/>
<polyline fill="none" stroke="black" points="438.88,-54.5 432.88,-54.5"/>
<text xml:space="preserve" text-anchor="middle" x="346.88" y="-37.45" font-family="Times,serif" font-size="14.00">Intermediate logs are available</text>
</g>
<!-- final:convergence:e2&#45;&gt;final:convergence:check_convergence -->
<g id="edge12" class="edge">
<title>final:convergence:e2&#45;&gt;final:convergence:check_convergence</title>
<path fill="none" stroke="black" d="M323.14,-60.8C311.26,-69.47 296.68,-80.1 283.74,-89.54"/>
<polygon fill="black" stroke="black" points="281.91,-86.54 275.89,-95.26 286.03,-92.2 281.91,-86.54"/>
</g>
</g>
</svg>
