<?xml version="1.0" encoding="UTF-8" standalone="no"?>
<!DOCTYPE svg PUBLIC "-//W3C//DTD SVG 1.1//EN"
 "http://www.w3.org/Graphics/SVG/1.1/DTD/svg11.dtd">
<!-- Generated by graphviz version 14.1.5 (20260411.2331)
 -->
<!-- Title: final Pages: 1 -->
<svg width="578pt" height="501pt"
 viewBox="0.00 0.00 578.00 501.00" xmlns="http://www.w3.org/2000/svg" xmlns:xlink="http://www.w3.org/1999/xlink">
<g id="graph0" class="graph" transform="scale(1 1) rotate(0) translate(4 496.5)">
<title>final</title>
<polygon fill="white" stroke="none" points="-4,4 -4,-496.5 574.18,-496.5 574.18,4 -4,4"/>
<text xml:space="preserve" text-anchor="middle" x="285.09" y="-7.2" font-family="Times,serif" font-size="14.00">final</text>
<!-- final:deployable:assembleConclusion -->
<g id="final:deployable:assembleConclusion" class="node">
<title>final:deployable:assembleConclusion</title>
<path fill="lightgrey" stroke="black" d="M327.68,-492.5C327.68,-492.5 223.93,-492.5 223.93,-492.5 217.93,-492.5 211.93,-486.5 211.93,-480.5 211.93,-480.5 211.93,-468.5 211.93,-468.5 211.93,-462.5 217.93,-456.5 223.93,-456.5 223.93,-456.5 327.68,-456.5 327.68,-456.5 333.68,-456.5 339.68,-462.5 339.68,-468.5 339.68,-468.5 339.68,-480.5 339.68,-480.5 339.68,-486.5 333.68,-492.5 327.68,-492.5"/>
<text xml:space="preserve" text-anchor="middle" x="275.8" y="-469.45" font-family="Times,serif" font-size="14.00">Model is deployable</text>
</g>
<!-- final:deployable:fair:c -->
<g id="final:deployable:fair:c" class="node">
<title>final:deployable:fair:c</title>
<polygon fill="none" stroke="#0072b2" points="439.3,-348.5 330.3,-348.5 330.3,-312.5 439.3,-312.5 439.3,-348.5"/>
<text xml:space="preserve" text-anchor="middle" x="384.8" y="-325.45" font-family="Times,serif" font-size="14.00">My model is fair</text>
</g>
<!-- final:deployable:assembleStrategy -->
<g id="final:deployable:assembleStrategy" class="node">
<title>final:deployable:assembleStrategy</title>
<polygon fill="#f0c27f" stroke="black" points="384.74,-402.5 330.27,-420.5 221.34,-420.5 166.87,-402.5 221.34,-384.5 330.27,-384.5 384.74,-402.5"/>
<text xml:space="preserve" text-anchor="middle" x="275.8" y="-397.45" font-family="Times,serif" font-size="14.00">All conditions are met</text>
</g>
<!-- final:deployable:fair:c&#45;&gt;final:deployable:assembleStrategy -->
<g id="edge9" class="edge">
<title>final:deployable:fair:c&#45;&gt;final:deployable:assembleStrategy</title>
<path fill="none" stroke="black" d="M357.58,-348.98C343.82,-357.82 326.94,-368.66 312.09,-378.2"/>
<polygon fill="black" stroke="black" points="310.48,-375.07 303.96,-383.42 314.26,-380.96 310.48,-375.07"/>
</g>
<!-- final:deployable:fair:s -->
<g id="final:deployable:fair:s" class="node">
<title>final:deployable:fair:s</title>
<polygon fill="#f0c27f" stroke="black" points="562.25,-258.5 491.53,-276.5 350.08,-276.5 279.36,-258.5 350.08,-240.5 491.53,-240.5 562.25,-258.5"/>
<text xml:space="preserve" text-anchor="middle" x="420.8" y="-253.45" font-family="Times,serif" font-size="14.00">Assess counterfactual fairness</text>
</g>
<!-- final:deployable:fair:s&#45;&gt;final:deployable:fair:c -->
<g id="edge2" class="edge">
<title>final:deployable:fair:s&#45;&gt;final:deployable:fair:c</title>
<path fill="none" stroke="black" d="M411.91,-276.8C407.94,-284.52 403.17,-293.79 398.75,-302.39"/>
<polygon fill="black" stroke="black" points="395.75,-300.56 394.29,-311.05 401.98,-303.76 395.75,-300.56"/>
</g>
<!-- final:hook -->
<g id="final:hook" class="node">
<title>final:hook</title>
<polygon fill="none" stroke="#0072b2" points="349.3,-204.5 174.3,-204.5 174.3,-168.5 349.3,-168.5 349.3,-204.5"/>
<text xml:space="preserve" text-anchor="middle" x="261.8" y="-181.45" font-family="Times,serif" font-size="14.00">The trained model converges</text>
</g>
<!-- final:hook&#45;&gt;final:deployable:fair:s -->
<g id="edge5" class="edge">
<title>final:hook&#45;&gt;final:deployable:fair:s</title>
<path fill="none" stroke="black" d="M301.52,-204.98C322.56,-214.25 348.61,-225.72 371,-235.57"/>
<polygon fill="black" stroke="black" points="369.38,-238.68 379.94,-239.51 372.2,-232.28 369.38,-238.68"/>
</g>
<!-- final:deployable:performant:s -->
<g id="final:deployable:performant:s" class="node">
<title>final:deployable:performant:s</title>
<polygon fill="#f0c27f" stroke="black" points="261.61,-258.5 196.21,-276.5 65.4,-276.5 0,-258.5 65.4,-240.5 196.21,-240.5 261.61,-258.5"/>
<text xml:space="preserve" text-anchor="middle" x="130.8" y="-253.45" font-family="Times,serif" font-size="14.00">Accuracy is greater than 80</text>
</g>
<!-- final:hook&#45;&gt;final:deployable:performant:s -->
<g id="edge7" class="edge">
<title>final:hook&#45;&gt;final:deployable:performant:s</title>
<path fill="none" stroke="black" d="M229.09,-204.98C212.16,-214.03 191.29,-225.18 173.14,-234.88"/>
<polygon fill="black" stroke="black" points="171.61,-231.73 164.44,-239.53 174.91,-237.9 171.61,-231.73"/>
</g>
<!-- final:deployable:fair:e2 -->
<g id="final:deployable:fair:e2" class="node">
<title>final:deployable:fair:e2</title>
<polygon fill="#9ecae1" stroke="black" points="564.18,-204.5 367.43,-204.5 367.43,-168.5 570.18,-168.5 570.18,-198.5 564.18,-204.5"/>
<polyline fill="none" stroke="black" points="564.18,-204.5 564.18,-198.5"/>
<polyline fill="none" stroke="black" points="570.18,-198.5 564.18,-198.5"/>
<text xml:space="preserve" text-anchor="middle" x="468.8" y="-181.45" font-family="Times,serif" font-size="14.00">Counterfactual dataset is available</text>
</g>
<!-- final:deployable:fair:e2&#45;&gt;final:deployable:fair:s -->
<g id="edge6" class="edge">
<title>final:deployable:fair:e2&#45;&gt;final:deployable:fair:s</title>
<path fill="none" stroke="black" d="M456.94,-204.8C451.53,-212.69 445.01,-222.2 439.01,-230.95"/>
<polygon fill="black" stroke="black" points="436.16,-228.92 433.39,-239.15 441.93,-232.88 436.16,-228.92"/>
</g>
<!-- final:deployable:performant:c -->
<g id="final:deployable:performant:c" class="node">
<title>final:deployable:performant:c</title>
<polygon fill="none" stroke="#0072b2" points="277.3,-348.5 126.3,-348.5 126.3,-312.5 277.3,-312.5 277.3,-348.5"/>
<text xml:space="preserve" text-anchor="middle" x="201.8" y="-325.45" font-family="Times,serif" font-size="14.00">My model is performant</text>
</g>
<!-- final:deployable:performant:c&#45;&gt;final:deployable:assembleStrategy -->
<g id="edge10" class="edge">
<title>final:deployable:performant:c&#45;&gt;final:deployable:assembleStrategy</title>
<path fill="none" stroke="black" d="M220.1,-348.8C228.9,-357.13 239.63,-367.28 249.3,-376.43"/>
<polygon fill="black" stroke="black" points="246.7,-378.78 256.37,-383.11 251.51,-373.7 246.7,-378.78"/>
</g>
<!-- final:deployable:performant:s&#45;&gt;final:deployable:performant:c -->
<g id="edge4" class="edge">
<title>final:deployable:performant:s&#45;&gt;final:deployable:performant:c</title>
<path fill="none" stroke="black" d="M148.36,-276.8C156.78,-285.11 167.04,-295.22 176.3,-304.36"/>
<polygon fill="black" stroke="black" points="173.8,-306.8 183.38,-311.33 178.71,-301.82 173.8,-306.8"/>
</g>
<!-- final:deployable:performant:e2 -->
<g id="final:deployable:performant:e2" class="node">
<title>final:deployable:performant:e2</title>
<polygon fill="#9ecae1" stroke="black" points="150.68,-204.5 10.93,-204.5 10.93,-168.5 156.68,-168.5 156.68,-198.5 150.68,-204.5"/>
<polyline fill="none" stroke="black" points="150.68,-204.5 150.68,-198.5"/>
<polyline fill="none" stroke="black" points="156.68,-198.5 150.68,-198.5"/>
<text xml:space="preserve" text-anchor="middle" x="83.8" y="-181.45" font-family="Times,serif" font-size="14.00">Test dataset is available</text>
</g>
<!-- final:deployable:performant:e2&#45;&gt;final:deployable:performant:s -->
<g id="edge8" class="edge">
<title>final:deployable:performant:e2&#45;&gt;final:deployable:performant:s</title>
<path fill="none" stroke="black" d="M95.42,-204.8C100.72,-212.69 107.1,-222.2 112.98,-230.95"/>
<polygon fill="black" stroke="black" points="110,-232.79 118.48,-239.14 115.81,-228.89 110,-232.79"/>
</g>
<!-- final:deployable:assembleStrategy&#45;&gt;final:deployable:assembleConclusion -->
<g id="edge1" class="edge">
<title>final:deployable:assembleStrategy&#45;&gt;final:deployable:assembleConclusion</title>
<path fill="none" stroke="black" d="M275.8,-420.8C275.8,-428.09 275.8,-436.77 275.8,-444.96"/>
<polygon fill="black" stroke="black" points="272.3,-444.88 275.8,-454.88 279.3,-444.88 272.3,-444.88"/>
</g>
<!-- final:convergence:check_convergence -->
<g id="final:convergence:check_convergence" class="node">
<title>final:convergence:check_convergence</title>
<polygon fill="#f0c27f" stroke="black" points="444.62,-114.5 353.21,-132.5 170.4,-132.5 78.99,-114.5 170.4,-96.5 353.21,-96.5 444.62,-114.5"/>
<text xml:space="preserve" text-anchor="middle" x="261.8" y="-109.45" font-family="Times,serif" font-size="14.00">Assessing logs to measure convergence</text>
</g>
<!-- final:convergence:check_convergence&#45;&gt;final:hook -->
<g id="edge3" class="edge">
<title>final:convergence:check_convergence&#45;&gt;final:hook</title>
<path fill="none" stroke="black" d="M261.8,-132.8C261.8,-140.09 261.8,-148.77 261.8,-156.96"/>
<polygon fill="black" stroke="black" points="258.3,-156.88 261.8,-166.88 265.3,-156.88 258.3,-156.88"/>
</g>
<!-- final:convergence:e1 -->
<g id="final:convergence:e1" class="node">
<title>final:convergence:e1</title>
<polygon fill="#9ecae1" stroke="black" points="241.55,-60.5 86.05,-60.5 86.05,-24.5 247.55,-24.5 247.55,-54.5 241.55,-60.5"/>
<polyline fill="none" stroke="black" points="241.55,-60.5 241.55,-54.5"/>
<polyline fill="none" stroke="black" points="247.55,-54.5 241.55,-54.5"/>
<text xml:space="preserve" text-anchor="middle" x="166.8" y="-37.45" font-family="Times,serif" font-size="14.00">Trained model is available</text>
</g>
<!-- final:convergence:e1&#45;&gt;final:convergence:check_convergence -->
<g id="edge11" class="edge">
<title>final:convergence:e1&#45;&gt;final:convergence:check_convergence</title>
<path fill="none" stroke="black" d="M190.29,-60.8C202.05,-69.47 216.48,-80.1 229.28,-89.54"/>
<polygon fill="black" stroke="black" points="226.92,-92.14 237.04,-95.26 231.07,-86.51 226.92,-92.14"/>
</g>
<!-- final:convergence:e2 -->
<g id="final:convergence:e2" class="node">
<title>final:convergence:e2</title>
<polygon fill="#9ecae1" stroke="black" points="443.8,-60.5 265.8,-60.5 265.8,-24.5 449.8,-24.5 449.8,-54.5 443.8,-60.5"/>
<polyline fill="none" stroke="black" points="443.8,-60.5 443.8,-54.5"/>
<polyline fill="none" stroke="black" points="449.8,-54.5 443.8,-54.5"/>
<text xml:space="preserve" text-anchor="middle" x="357.8" y="-37.45" font-family="Times,serif" font-size="14.00">Intermediate logs are available</text>
</g>
<!-- final:convergence:e2&#45;&gt;final:convergence:check_convergence -->
<g id="edge12" class="edge">
<title>final:convergence:e2&#45;&gt;final:convergence:check_convergence</title>
<path fill="none" stroke="black" d="M334.07,-60.8C322.19,-69.47 307.61,-80.1 294.67,-89.54"/>
<polygon fill="black" stroke="black" points="292.84,-86.54 286.82,-95.26 296.96,-92.2 292.84,-86.54"/>
</g>
</g>
</svg>
